<svg width="100%" height="100%" viewBox="0 0 99 197" fill="none" xmlns="http://www.w3.org/2000/svg">
<path d="M98.1187 46.7618H97.0375V17.1427C97.0375 14.8915 96.5941 12.6623 95.7326 10.5825C94.8711 8.50265 93.6084 6.61285 92.0165 5.021C90.4247 3.42915 88.5349 2.16642 86.455 1.30492C84.3752 0.443414 82.146 2.13047e-06 79.8948 0H17.1428C14.8915 -5.32602e-06 12.6624 0.4434 10.5825 1.3049C8.50266 2.16639 6.61286 3.42911 5.02101 5.02096C3.42916 6.6128 2.16643 8.5026 1.30492 10.5824C0.443415 12.6623 4.61592e-06 14.8915 0 17.1427V179.635C-4.30258e-06 184.182 1.80609 188.542 5.02097 191.757C8.23585 194.972 12.5962 196.778 17.1427 196.778H79.8947C84.4413 196.778 88.8016 194.972 92.0165 191.757C95.2313 188.542 97.0375 184.182 97.0375 179.635V67.8452H98.1187L98.1187 46.7618Z" fill="#3F3D56"/>
<path d="M80.5864 4.45987H72.3952C72.7719 5.3834 72.9157 6.38539 72.8139 7.37759C72.7121 8.36978 72.3679 9.32171 71.8116 10.1495C71.2552 10.9774 70.5039 11.6557 69.6236 12.1247C68.7434 12.5937 67.7613 12.8391 66.7639 12.8392H30.8141C29.8167 12.8391 28.8346 12.5937 27.9544 12.1247C27.0741 11.6557 26.3228 10.9774 25.7664 10.1496C25.2101 9.32173 24.8659 8.36979 24.7641 7.37759C24.6623 6.3854 24.8061 5.3834 25.1828 4.45988H17.5322C14.1369 4.45987 10.8806 5.80865 8.47981 8.20948C6.07897 10.6103 4.73018 13.8666 4.73018 17.2618V179.516C4.73018 181.197 5.06131 182.862 5.70467 184.415C6.34803 185.968 7.29102 187.38 8.47979 188.568C9.66857 189.757 11.0798 190.7 12.6331 191.344C14.1863 191.987 15.851 192.318 17.5322 192.318H80.5864C82.2676 192.318 83.9323 191.987 85.4855 191.344C87.0388 190.7 88.45 189.757 89.6388 188.568C90.8276 187.38 91.7706 185.968 92.4139 184.415C93.0573 182.862 93.3884 181.197 93.3884 179.516V179.516V17.2618C93.3884 15.5807 93.0573 13.9159 92.4139 12.3627C91.7706 10.8095 90.8276 9.39825 89.6388 8.20948C88.45 7.0207 87.0388 6.07772 85.4855 5.43436C83.9323 4.791 82.2676 4.45987 80.5864 4.45987V4.45987Z" fill="white"/>
<path d="M85.3671 36.3631H12.7515V160.415H85.3671V36.3631Z" fill="#E6E6E6"/>
<path d="M40.9367 105.636C47.9399 105.636 53.6172 104.2 53.6172 102.428C53.6172 100.656 47.9399 99.2198 40.9367 99.2198C33.9334 99.2198 28.2561 100.656 28.2561 102.428C28.2561 104.2 33.9334 105.636 40.9367 105.636Z" fill="#2F2E41"/>
<path d="M38.4158 59.7268C39.1797 62.0185 36.888 64.7685 36.888 64.7685L40.0964 68.7407L45.138 69.6574C45.138 69.6574 48.4991 67.3657 47.2769 66.6018C46.0547 65.8379 45.9019 59.7268 45.9019 59.7268L38.4158 59.7268Z" fill="#A0616A"/>
<path d="M33.2227 104.165L27.7228 145.185L28.0256 145.226L33.5256 104.205L33.2227 104.165Z" fill="#2F2E41"/>
<path d="M38.2636 104.783L34.7498 145.269L35.0541 145.295L38.568 104.809L38.2636 104.783Z" fill="#2F2E41"/>
<path d="M47.8985 98.5173L47.5941 98.5451L51.8498 145.221L52.1542 145.193L47.8985 98.5173Z" fill="#2F2E41"/>
<path d="M43.9467 97.7527L42.2354 145.353L42.5407 145.364L44.252 97.7637L43.9467 97.7527Z" fill="#2F2E41"/>
<path d="M51.5547 89.9768L42.2353 97.9212L58.1241 101.893C58.1241 101.893 52.4713 106.782 50.4852 107.241C48.4991 107.699 44.2214 110.296 44.2214 110.296C44.2214 110.296 51.2491 115.032 51.7075 114.879C52.1658 114.727 54.763 114.116 54.763 114.116C54.763 114.116 68.8185 104.338 71.7213 98.5323C74.624 92.7268 57.0547 91.5045 57.0547 91.5045L51.5547 89.9768Z" fill="#2F2E41"/>
<path d="M31.8464 99.2962C31.2353 101.282 35.8186 103.421 35.8186 103.421C35.8186 103.421 40.0964 109.074 41.3186 109.685C42.5408 110.296 42.9992 113.963 42.9992 113.963C40.8603 119.768 42.9992 137.032 42.9992 139.477C42.9992 141.921 50.4853 139.477 50.4853 139.477C50.4853 139.477 49.1103 120.838 51.0964 115.213C53.0825 109.588 42.9992 95.324 42.9992 95.324C42.9992 95.324 32.4575 97.3101 31.8464 99.2962Z" fill="#2F2E41"/>
<path d="M35.9714 56.5132C35.9721 54.8919 36.6168 53.3374 37.7635 52.1913C38.9103 51.0453 40.4653 50.4017 42.0865 50.4021C43.7078 50.4024 45.2625 51.0467 46.4088 52.1932C47.555 53.3398 48.199 54.8946 48.199 56.5159C48.199 58.1371 47.555 59.692 46.4088 60.8385C45.2625 61.985 43.7078 62.6293 42.0865 62.6296C40.4653 62.63 38.9103 61.9864 37.7635 60.8404C36.6168 59.6943 35.9721 58.1398 35.9714 56.5185V56.5132Z" fill="#A0616A"/>
<path d="M59.4992 91.6573L53.1783 89.4644C52.9362 87.261 52.5766 84.5508 52.224 82.0382L54.152 71.7963L54.3192 67.0673C53.2377 65.1746 46.103 62.6296 46.103 62.6296C46.103 62.6296 46.245 63.1284 46.4435 63.9215C46.3866 63.9228 46.3315 63.9415 46.2857 63.9753C46.2857 63.9753 47.1242 68.8935 42.6936 67.6713C41.4359 67.3612 40.3015 66.6776 39.4397 65.7104C38.599 64.2759 38.142 63.0112 38.3477 62.0885C38.3477 62.0885 29.7848 68.7841 29.1737 70.3119C28.5626 71.8397 30.796 84.9125 30.796 84.9125C30.796 84.9125 28.3326 98.3795 31.3881 101.893C31.3881 101.893 30.3187 100.06 35.9714 100.06C41.6242 100.06 44.3742 98.9906 44.527 98.8379C44.6798 98.6851 47.5825 98.8379 47.5825 98.8379C47.5825 98.8379 47.6368 97.7267 47.6807 95.9631C50.6225 95.2397 53.0839 94.4052 53.388 93.949C53.4526 93.782 53.4806 93.6032 53.47 93.4245L59.4992 91.6573Z" fill="white"/>
<path d="M50.5208 93.6848L51.0964 97.7683C51.0964 97.7683 55.8325 104.796 58.2769 103.268C60.7213 101.741 54.6102 96.0878 54.6102 96.0878V94.2545L50.5208 93.6848Z" fill="#A0616A"/>
<path d="M45.4436 110.296C45.4436 110.296 40.0964 113.963 39.9436 114.879C39.7909 115.796 51.0964 126.796 53.6936 125.879C56.2908 124.963 50.4853 116.102 50.4853 116.102L52.1658 113.657L45.4436 110.296Z" fill="#2F2E41"/>
<path d="M43.7631 138.254C43.7631 138.254 41.4714 142.532 42.6936 144.365C43.9159 146.199 44.8325 148.49 45.5964 150.171C46.3603 151.852 51.8603 152.615 54.3047 152.004C56.7491 151.393 51.4019 144.365 51.4019 144.365L50.0269 138.254H43.7631Z" fill="#2F2E41"/>
<path d="M55.5269 70.4213C55.3741 66.7546 52.7769 65.6852 52.7769 65.6852L51.0963 84.4768L51.2755 84.4891L51.0963 84.7823L50.0269 95.324C51.2491 93.7962 55.0685 95.324 55.0685 95.324L55.5269 84.7823C55.5269 84.7823 55.6797 74.0879 55.5269 70.4213Z" fill="white"/>
<path d="M48.0408 99.2962L50.0269 100.824C50.0269 100.824 52.9297 105.102 57.9713 102.504C63.013 99.9073 51.7074 96.2406 51.7074 96.2406L48.8047 95.324L48.0408 99.2962Z" fill="#A0616A"/>
<path d="M28.1797 71.4907C26.652 73.324 30.1659 85.699 31.0825 89.3656C31.9992 93.0323 40.2492 96.2406 42.2353 96.3934C44.2214 96.5462 46.2075 100.213 47.5825 100.824C48.9575 101.435 49.1102 97.31 49.8889 95.3731C50.6675 93.4361 45.4436 93.6434 45.4436 93.6434L37.8047 88.6017C37.8047 88.6017 37.0408 81.574 36.4297 76.2268C35.8186 70.8796 31.6936 68.8935 31.6936 68.8935C30.4714 68.1296 29.7075 69.6573 28.1797 71.4907Z" fill="white"/>
<path d="M46.3913 53.2113C46.3913 53.2113 49.7567 55.1942 50.4795 55.1769C51.2022 55.1597 51.3773 54.4748 50.8443 53.5304C50.3113 52.586 47.8662 52.6231 47.8662 52.6231L46.3913 53.2113Z" fill="#3F3D56"/>
<path opacity="0.1" d="M46.3913 53.2113C46.3913 53.2113 49.7567 55.1942 50.4795 55.1769C51.2022 55.1597 51.3773 54.4748 50.8443 53.5304C50.3113 52.586 47.8662 52.6231 47.8662 52.6231L46.3913 53.2113Z" fill="black"/>
<path d="M39.1318 52.938L42.8801 51.3597L46.1791 51.4511L49.5738 52.8802C48.2422 52.3377 45.0096 54.1377 42.7241 56.4043C40.4385 58.6709 38.8507 57.1987 38.8507 57.1987L37.1783 55.7497L39.1318 52.938Z" fill="#508EBC"/>
<path d="M35.4374 54.5469C35.1878 52.7268 36.3394 51.0873 37.0715 50.2509C37.3987 49.8784 37.8481 49.635 38.3388 49.5644V49.5644C38.3579 49.5446 38.3787 49.5243 38.4014 49.5044C39.2057 48.7899 42.0491 48.1784 42.0491 48.1784C42.8943 47.9455 44.5115 48.864 44.5115 48.864L47.5035 52.1319C45.9562 51.467 43.7819 52.157 43.7819 52.157C41.6145 52.6577 39.5768 54.0876 38.1353 55.325C37.3882 55.9606 36.687 56.6482 36.0369 57.3827C36.0369 57.3827 35.798 57.1758 35.4374 54.5469Z" fill="#508EBC"/>
<path opacity="0.1" d="M37.3777 55.8909C43.6893 50.5726 47.2232 51.7352 47.3704 51.7871L47.2691 52.0754C47.2345 52.0634 43.7338 50.9347 37.5746 56.1246L37.3777 55.8909Z" fill="black"/>
<path d="M38.7978 49.9436C39.2362 49.6905 39.4548 49.2483 39.2861 48.9561C39.1173 48.6638 38.6251 48.632 38.1867 48.8852C37.7482 49.1383 37.5296 49.5804 37.6984 49.8727C37.8671 50.165 38.3593 50.1967 38.7978 49.9436Z" fill="#508EBC"/>
<path d="M37.418 56.6611C37.479 56.2437 37.3254 55.8756 37.0749 55.839C36.8244 55.8024 36.572 56.1112 36.511 56.5286C36.45 56.9461 36.6036 57.3142 36.8541 57.3507C37.1045 57.3873 37.357 57.0786 37.418 56.6611Z" fill="#A0616A"/>
<path opacity="0.2" d="M37.5555 80.0458L38.0181 88.7426L45.3966 93.2945L38.9074 88.4276L37.5555 80.0458Z" fill="black"/>
<path opacity="0.2" d="M49.9931 81.3976L49.4523 93.2944L49.1819 81.3976H49.9931Z" fill="black"/>
</svg>
