<svg width="100%" height="100%" viewBox="0 0 273 151" fill="none" xmlns="http://www.w3.org/2000/svg">
<path opacity="0.7" d="M207.513 0.885437H65.2063C63.9867 0.890188 62.8188 1.41008 61.9593 2.33082C61.0998 3.25157 60.6191 4.49779 60.6228 5.79556V110.015C60.6191 111.312 61.0998 112.559 61.9593 113.48C62.8188 114.4 63.9867 114.92 65.2063 114.925H114.15V132.915H111.919C111.612 132.915 111.309 132.981 111.026 133.107C110.744 133.233 110.488 133.417 110.272 133.648C110.056 133.879 109.885 134.154 109.769 134.455C109.653 134.757 109.594 135.079 109.594 135.406V139.015H114.15V141.15H158.568V139.015H163.124V135.406C163.125 135.079 163.066 134.757 162.95 134.455C162.833 134.154 162.662 133.879 162.447 133.648C162.231 133.417 161.974 133.233 161.693 133.107C161.41 132.981 161.106 132.915 160.8 132.915H158.701V132.759H158.558V114.925H207.513C208.732 114.92 209.9 114.4 210.759 113.48C211.619 112.559 212.099 111.312 212.096 110.015V5.79556C212.099 4.49779 211.619 3.25157 210.759 2.33082C209.9 1.41008 208.732 0.890188 207.513 0.885437Z" fill="url(#paint0_linear)"/>
<path d="M158.42 111.827H114.58V139.338H158.42V111.827Z" fill="#BDBDBD"/>
<path opacity="0.1" d="M115.443 114.518H157.644C158.153 112.165 158.56 110.631 158.56 110.631H114.44C114.44 110.631 114.892 112.159 115.443 114.518Z" fill="black"/>
<path d="M66.2715 1.78256H206.729C207.929 1.78256 209.079 2.2898 209.928 3.19268C210.776 4.09556 211.253 5.32014 211.253 6.597V98.6692H61.7469V6.597C61.7469 5.32014 62.2236 4.09556 63.0721 3.19268C63.9207 2.2898 65.0715 1.78256 66.2715 1.78256Z" fill="#535461"/>
<path d="M206.729 113.621H66.2715C65.0715 113.621 63.9207 113.114 63.0721 112.21C62.2236 111.308 61.7469 110.083 61.7469 108.806V98.6692H211.253V108.806C211.253 110.083 210.776 111.308 209.928 112.21C209.079 113.114 207.929 113.621 206.729 113.621Z" fill="#BDBDBD"/>
<path d="M136.5 108.836C137.897 108.836 139.029 107.632 139.029 106.145C139.029 104.659 137.897 103.454 136.5 103.454C135.103 103.454 133.971 104.659 133.971 106.145C133.971 107.632 135.103 108.836 136.5 108.836Z" fill="#535461"/>
<path d="M112.379 131.264H160.62C161.23 131.264 161.814 131.521 162.244 131.98C162.674 132.437 162.917 133.059 162.917 133.707V137.244H110.083V133.707C110.083 133.387 110.143 133.069 110.258 132.772C110.373 132.476 110.543 132.206 110.756 131.98C110.969 131.753 111.222 131.573 111.501 131.45C111.779 131.327 112.078 131.264 112.379 131.264Z" fill="#BDBDBD"/>
<path opacity="0.5" d="M181.604 22.1526H91.3956C90.6967 22.1526 90.1304 22.7551 90.1304 23.4983V76.9536C90.1304 77.6967 90.6967 78.2992 91.3956 78.2992H181.604C182.303 78.2992 182.87 77.6967 182.87 76.9536V23.4983C182.87 22.7551 182.303 22.1526 181.604 22.1526Z" fill="url(#paint1_linear)"/>
<path d="M180.416 22.5653H92.584C91.886 22.5653 91.3197 23.1678 91.3197 23.911V76.2298C91.3197 76.973 91.886 77.5755 92.584 77.5755H180.416C181.114 77.5755 181.68 76.973 181.68 76.2298V23.911C181.68 23.1678 181.114 22.5653 180.416 22.5653Z" fill="white"/>
<path opacity="0.5" d="M125.186 30.4628H117.756C117.057 30.4628 116.491 31.0652 116.491 31.8085V38.6563C116.491 39.3995 117.057 40.002 117.756 40.002H125.186C125.884 40.002 126.451 39.3995 126.451 38.6563V31.8085C126.451 31.0652 125.884 30.4628 125.186 30.4628Z" fill="#6C63FF"/>
<path d="M155.831 30.4628H129.935C129.661 30.4628 129.438 30.6998 129.438 30.9921C129.438 31.2844 129.661 31.5213 129.935 31.5213H155.831C156.107 31.5213 156.329 31.2844 156.329 30.9921C156.329 30.6998 156.107 30.4628 155.831 30.4628Z" fill="#E0E0E0"/>
<path d="M151.293 33.6444H129.935C129.661 33.6444 129.438 33.8814 129.438 34.1737C129.438 34.466 129.661 34.703 129.935 34.703H151.293C151.568 34.703 151.791 34.466 151.791 34.1737C151.791 33.8814 151.568 33.6444 151.293 33.6444Z" fill="#E0E0E0"/>
<path opacity="0.5" d="M125.186 45.3008H117.756C117.057 45.3008 116.491 45.9032 116.491 46.6464V53.4943C116.491 54.2375 117.057 54.8399 117.756 54.8399H125.186C125.884 54.8399 126.451 54.2375 126.451 53.4943V46.6464C126.451 45.9032 125.884 45.3008 125.186 45.3008Z" fill="#6C63FF"/>
<path d="M155.831 45.3008H129.935C129.661 45.3008 129.438 45.5378 129.438 45.8301C129.438 46.1224 129.661 46.3593 129.935 46.3593H155.831C156.107 46.3593 156.329 46.1224 156.329 45.8301C156.329 45.5378 156.107 45.3008 155.831 45.3008Z" fill="#E0E0E0"/>
<path d="M155.831 48.4794H129.935C129.661 48.4794 129.438 48.7164 129.438 49.0088C129.438 49.3011 129.661 49.538 129.935 49.538H155.831C156.107 49.538 156.329 49.3011 156.329 49.0088C156.329 48.7164 156.107 48.4794 155.831 48.4794Z" fill="#E0E0E0"/>
<path opacity="0.5" d="M125.186 60.1387H117.756C117.057 60.1387 116.491 60.7412 116.491 61.4844V68.3322C116.491 69.0755 117.057 69.6779 117.756 69.6779H125.186C125.884 69.6779 126.451 69.0755 126.451 68.3322V61.4844C126.451 60.7412 125.884 60.1387 125.186 60.1387Z" fill="#6C63FF"/>
<path d="M155.831 60.1387H129.935C129.661 60.1387 129.438 60.3758 129.438 60.6681C129.438 60.9604 129.661 61.1974 129.935 61.1974H155.831C156.107 61.1974 156.329 60.9604 156.329 60.6681C156.329 60.3758 156.107 60.1387 155.831 60.1387Z" fill="#E0E0E0"/>
<path d="M156.062 63.3176H129.885C129.638 63.3176 129.438 63.5304 129.438 63.793V63.9007C129.438 64.1632 129.638 64.3761 129.885 64.3761H156.062C156.309 64.3761 156.509 64.1632 156.509 63.9007V63.793C156.509 63.5304 156.309 63.3176 156.062 63.3176Z" fill="#E0E0E0"/>
<path d="M136.5 13.4448V6.86603" stroke="#6C63FF" strokeWidth="2" strokeMiterlimit="10"/>
<path d="M136.5 24.509V15.8759" stroke="#6C63FF" strokeWidth="2" strokeMiterlimit="10"/>
<path d="M136.5 25.7052C137.121 25.7052 137.624 25.1697 137.624 24.5091C137.624 23.8484 137.121 23.313 136.5 23.313C135.88 23.313 135.376 23.8484 135.376 24.5091C135.376 25.1697 135.88 25.7052 136.5 25.7052Z" fill="#6C63FF"/>
<path d="M136.5 15.837C137.121 15.837 137.624 15.3015 137.624 14.6408C137.624 13.9803 137.121 13.4448 136.5 13.4448C135.88 13.4448 135.376 13.9803 135.376 14.6408C135.376 15.3015 135.88 15.837 136.5 15.837Z" stroke="white" strokeMiterlimit="10"/>
<path d="M136.5 13.4448V6.86603" stroke="#6C63FF" strokeWidth="2" strokeMiterlimit="10"/>
<path d="M136.5 24.509V15.8759" stroke="#6C63FF" strokeWidth="2" strokeMiterlimit="10"/>
<path d="M136.5 25.7052C137.121 25.7052 137.624 25.1697 137.624 24.5091C137.624 23.8484 137.121 23.313 136.5 23.313C135.88 23.313 135.376 23.8484 135.376 24.5091C135.376 25.1697 135.88 25.7052 136.5 25.7052Z" fill="#6C63FF"/>
<path d="M136.5 15.837C137.121 15.837 137.624 15.3015 137.624 14.6408C137.624 13.9803 137.121 13.4448 136.5 13.4448C135.88 13.4448 135.376 13.9803 135.376 14.6408C135.376 15.3015 135.88 15.837 136.5 15.837Z" stroke="white" strokeMiterlimit="10"/>
<path d="M136.5 84.3158V93.5853" stroke="#6C63FF" strokeWidth="2" strokeMiterlimit="10"/>
<path d="M136.5 75.9428V84.5759" stroke="#508EBC" strokeWidth="2" strokeMiterlimit="10"/>
<path d="M136.5 77.1389C137.121 77.1389 137.624 76.6034 137.624 75.9428C137.624 75.2821 137.121 74.7466 136.5 74.7466C135.88 74.7466 135.376 75.2821 135.376 75.9428C135.376 76.6034 135.88 77.1389 136.5 77.1389Z" fill="#6C63FF"/>
<path d="M85.9156 51.2724H77.0629" stroke="#6C63FF" strokeWidth="2" strokeMiterlimit="10"/>
<path d="M93.6431 51.2724H85.5303" stroke="#508EBC" strokeWidth="2" strokeMiterlimit="10"/>
<path d="M93.6431 52.4687C94.2644 52.4687 94.7673 51.9331 94.7673 51.2726C94.7673 50.612 94.2644 50.0765 93.6431 50.0765C93.0227 50.0765 92.5198 50.612 92.5198 51.2726C92.5198 51.9331 93.0227 52.4687 93.6431 52.4687Z" fill="#6C63FF"/>
<path opacity="0.1" d="M158.561 131.115H114.721V132.011H158.561V131.115Z" fill="black"/>
<path opacity="0.7" d="M50.3599 110.648H30.0136L30.2946 108.214C36.0444 102.721 39.7624 88.0861 39.7624 88.0861C39.6799 88.0986 39.5982 88.1161 39.5178 88.1403C36.1456 88.8642 33.7456 90.3378 32.0679 92.1117L32.7817 85.6343C43.4045 83.2001 47.617 68.2484 47.617 68.2484C40.8387 69.8483 36.612 72.3243 33.9873 74.6746L35.0327 65.1595C42.2157 67.782 49.6461 53.85 49.6461 53.85L49.365 53.7872L49.5055 53.6915L49.292 53.7723C41.353 51.9511 37.1095 56.7805 35.7325 58.787L35.8365 57.8541C35.6266 58.4521 35.4224 59.0382 35.2238 59.6124V59.6362C34.6617 61.2571 34.1475 62.8579 33.681 64.4387C33.2744 65.7884 32.8941 67.124 32.54 68.4458V68.4279C32.54 68.4279 32.2112 59.9174 23.7776 57.6776C23.7776 57.6776 24.6628 76.2386 31.3457 73.2004C30.7274 75.8917 30.2216 78.4814 29.7832 80.9962C29.504 82.633 29.2604 84.2278 29.0524 85.781L29.0132 85.8286L29.0524 85.7927L29.0356 85.9153C28.8483 87.3247 28.689 88.6983 28.5579 90.0359C28.6872 87.4581 28.2459 80.0124 20.0006 73.015C20.0006 73.015 9.04058 93.5111 27.7288 97.5358C27.771 97.575 27.8132 97.6134 27.8525 97.6493L27.8244 97.5567L27.993 97.5959L28.0689 96.5426C27.8436 100.936 27.8652 105.34 28.1335 109.73C28.1532 110.03 28.1728 110.328 28.1925 110.612H7.613C-0.238869 127.894 11.9745 137.364 11.9745 137.364H45.6976C58.7935 119.799 50.3599 110.648 50.3599 110.648Z" fill="url(#paint2_linear)"/>
<path opacity="0.6" d="M28.867 117.209C28.867 117.209 23.5275 92.3895 35.3306 60.393" stroke="#535461" strokeWidth="3" strokeMiterlimit="10"/>
<path d="M8.071 109.734H49.3818C49.3818 109.734 57.5316 120.798 44.8854 137.245H12.2864C12.2864 137.245 0.483289 125.882 8.071 109.734Z" fill="#508EBC"/>
<path d="M34.7377 62.0378C34.7377 62.0378 38.8435 54.2629 48.6794 56.6551C48.6794 56.6551 40.5494 71.3856 33.223 66.5621L34.7377 62.0378Z" fill="#4DB6AC"/>
<path d="M32.1354 70.288C32.1354 70.288 31.8179 62.3367 23.6681 60.2435C23.6681 60.2435 24.5111 77.5875 30.9747 74.7466L32.1354 70.288Z" fill="#4DB6AC"/>
<path d="M29.4713 82.031C29.4713 82.031 30.9748 73.7 46.7123 70.1116C46.7123 70.1116 41.6931 87.3422 28.7462 86.6509L29.4713 82.031Z" fill="#4DB6AC"/>
<path d="M28.1954 91.382C28.1954 91.382 29.8506 82.6712 20.0147 74.5973C20.0147 74.5973 9.33571 93.9356 27.7373 97.5717L28.1954 91.382Z" fill="#4DB6AC"/>
<path d="M27.9002 103.355C27.9002 103.355 26.7593 91.0442 39.1245 88.6516C39.1245 88.6516 34.6083 105.843 27.8834 108.908L27.9002 103.355Z" fill="#4DB6AC"/>
<path opacity="0.3" d="M33.3634 66.6727C33.3634 66.6727 44.0424 58.0008 48.5388 56.5056" stroke="#535461" strokeMiterlimit="10"/>
<path opacity="0.3" d="M28.7264 86.5583C28.7264 86.5583 41.6536 71.9058 46.7122 70.1116" stroke="#535461" strokeMiterlimit="10"/>
<path opacity="0.3" d="M23.6681 60.2435C23.6681 60.2435 31.5368 71.6067 30.9747 74.5971" stroke="#535461" strokeMiterlimit="10"/>
<path opacity="0.3" d="M20.0147 74.5973C20.0147 74.5973 24.2301 94.9314 27.6024 97.6226" stroke="#535461" strokeMiterlimit="10"/>
<path opacity="0.3" d="M27.8835 108.986C27.8835 108.986 34.628 89.2495 39.1244 88.6516" stroke="#535461" strokeMiterlimit="10"/>
<path opacity="0.1" d="M49.3819 109.734H8.0711C7.97835 109.934 7.88843 110.134 7.79007 110.331H47.9768C47.9768 110.331 55.927 121.13 43.93 137.245H44.8855C57.5317 120.798 49.3819 109.734 49.3819 109.734Z" fill="black"/>
<path d="M273 137.124H0V146.972H273V137.124Z" fill="#E0E0E0"/>
<path d="M261.43 146.972H11.5671V151H261.43V146.972Z" fill="#E0E0E0"/>
<path opacity="0.1" d="M261.43 146.972H11.5671V148.315H261.43V146.972Z" fill="black"/>
<path d="M193.97 51.2724H195.656" stroke="#6C63FF" strokeWidth="2" strokeMiterlimit="10"/>
<path d="M179.076 51.2724H191.688" stroke="#508EBC" strokeWidth="2" strokeMiterlimit="10"/>
<path d="M179.076 52.4687C179.696 52.4687 180.2 51.9331 180.2 51.2726C180.2 50.612 179.696 50.0765 179.076 50.0765C178.455 50.0765 177.952 50.612 177.952 51.2726C177.952 51.9331 178.455 52.4687 179.076 52.4687Z" fill="#6C63FF"/>
<path d="M192.846 52.4687C193.467 52.4687 193.97 51.9331 193.97 51.2726C193.97 50.612 193.467 50.0765 192.846 50.0765C192.225 50.0765 191.722 50.612 191.722 51.2726C191.722 51.9331 192.225 52.4687 192.846 52.4687Z" stroke="white" strokeMiterlimit="10"/>
<path opacity="0.7" d="M256.498 133.919L256.527 133.874C256.584 133.779 256.642 133.679 256.698 133.576L256.728 133.518C256.783 133.421 256.834 133.321 256.883 133.22L256.908 133.169C256.964 133.052 257.018 132.935 257.066 132.813C257.167 132.568 257.255 132.317 257.33 132.062L257.358 131.964C257.384 131.871 257.409 131.779 257.431 131.685L257.459 131.554C257.478 131.47 257.495 131.386 257.51 131.3C257.51 131.252 257.526 131.204 257.535 131.157C257.544 131.108 257.561 130.989 257.572 130.902C257.583 130.815 257.572 130.804 257.588 130.755C257.606 130.708 257.606 130.574 257.611 130.48C257.611 130.438 257.611 130.393 257.611 130.352C257.611 130.217 257.611 130.08 257.611 129.946V105.248H253.719V93.1433H248.942V105.248H245.647V87.8626H240.87V105.248H239.075V85.3774H234.297V105.248H230.081V129.948C230.081 133.98 233.232 137.244 237.108 137.244H250.597C251.7 137.249 252.788 136.979 253.775 136.457C254.763 135.935 255.623 135.175 256.285 134.236C256.354 134.13 256.425 134.025 256.498 133.919Z" fill="url(#paint3_linear)"/>
<path d="M239.355 96.8754H234.859V126.778H239.355V96.8754Z" fill="#535461"/>
<path d="M239.355 87.007H234.859V96.8754H239.355V87.007Z" fill="#3AD29F"/>
<path d="M245.538 99.2672H241.041V129.171H245.538V99.2672Z" fill="#535461"/>
<path d="M245.538 89.3996H241.041V99.2672H245.538V89.3996Z" fill="#4D8AF0"/>
<path d="M253.126 104.351H248.63V134.254H253.126V104.351Z" fill="#535461"/>
<path d="M253.126 94.4827H248.63V104.351H253.126V94.4827Z" fill="#F55F44"/>
<path d="M230.925 106.145H256.779V129.918C256.779 131.782 256.084 133.569 254.844 134.887C253.606 136.205 251.926 136.945 250.175 136.945H237.529C235.777 136.945 234.098 136.205 232.859 134.887C231.621 133.569 230.925 131.782 230.925 129.918V106.145Z" fill="#508EBC"/>
<path opacity="0.1" d="M230.925 106.145V107.341H255.655V131.114C255.658 132.685 255.162 134.212 254.25 135.447C255.039 134.791 255.676 133.951 256.115 132.994C256.552 132.036 256.78 130.984 256.779 129.918V106.145H230.925Z" fill="black"/>
<defs>
<linearGradient id="paint0_linear" x1="136.359" y1="141.147" x2="136.359" y2="0.885437" gradientUnits="userSpaceOnUse">
<stop stop-color="#808080" stop-opacity="0.25"/>
<stop offset="0.54" stop-color="#808080" stop-opacity="0.12"/>
<stop offset="1" stop-color="#808080" stop-opacity="0.1"/>
</linearGradient>
<linearGradient id="paint1_linear" x1="45135.1" y1="14557.3" x2="45135.1" y2="4015.29" gradientUnits="userSpaceOnUse">
<stop stop-color="#808080" stop-opacity="0.25"/>
<stop offset="0.54" stop-color="#808080" stop-opacity="0.12"/>
<stop offset="1" stop-color="#808080" stop-opacity="0.1"/>
</linearGradient>
<linearGradient id="paint2_linear" x1="6347.86" y1="43310.6" x2="14564.8" y2="43310.6" gradientUnits="userSpaceOnUse">
<stop stop-color="#808080" stop-opacity="0.25"/>
<stop offset="0.54" stop-color="#808080" stop-opacity="0.12"/>
<stop offset="1" stop-color="#808080" stop-opacity="0.1"/>
</linearGradient>
<linearGradient id="paint3_linear" x1="25914.9" y1="29560.6" x2="28612.8" y2="29560.6" gradientUnits="userSpaceOnUse">
<stop stop-color="#808080" stop-opacity="0.25"/>
<stop offset="0.54" stop-color="#808080" stop-opacity="0.12"/>
<stop offset="1" stop-color="#808080" stop-opacity="0.1"/>
</linearGradient>
</defs>
</svg>
