  <svg xmlns="http://www.w3.org/2000/svg" width="150px" height="150px" viewBox="0 0 1135.201 754.114">
          <g id="Grupo_1" data-name="Grupo 1" transform="translate(-331 -202)">
            <path id="Trazado_1" data-name="Trazado 1" d="M991.018,751.253a139.963,139.963,0,0,1-27.7-.37c-101.12-11.18-238.82-8-351.07,61.55-155.24,96.17-398.53,13.84-505.85-30.95-82-34.21-124.57-118-99-196.65.36-1.11.73-2.22,1.12-3.33,16.09-46.74,47.85-83.32,87.18-102.71,34.28-16.9,84.33-52.19,106.6-120,9.2-28,21.82-54.34,38.21-77.3C284.4,220,376.278,128.433,534.3,129a254.63,254.63,0,0,1,81.41,13.78c57.73,19.67,109.87,59.66,149.63,115.1,25.37,35.36,63.39,68.23,117.82,70.91,75.54,3.74,147.632,38.91,201.712,101.5,1.56,1.8,3.1,3.61,4.64,5.44C1185.8,550.443,1118.92,740.073,991.018,751.253Z" transform="translate(331 99)" fill="#508ebc" />
            <g id="rocket">
              <path id="Trazado_2" data-name="Trazado 2" d="M457.583,510.1s8-1.83,13.22,3.55c0,0-3.37,3-11.27-.33Z" transform="translate(305 202)" fill="#AE3C43" />
              <path id="Trazado_3" data-name="Trazado 3" d="M500.273,577.96a38.273,38.273,0,0,0-7.5,2.14c-53.94,21.54-53.04,162.54-53.04,162.54h-15.88s-5-60.51-26.79-146.84c-19.63-77.67,60.88-147.28,77.23-160.48,1.84-1.47,2.86-2.25,2.86-2.25C558.243,462.87,500.273,577.96,500.273,577.96Z" transform="translate(305 202)" fill="#AE3C43" />
              <path id="Trazado_4" data-name="Trazado 4" d="M483.053,435.52c-1.87-.86-3.8-1.68-5.85-2.43,0,0-1,.78-2.86,2.25-16.35,13.2-96.86,82.81-77.23,160.48,21.79,86.33,26.74,146.82,26.74,146.82h8.93s-4.95-60.51-26.79-146.84C386.443,518.49,466.173,449.14,483.053,435.52Z" transform="translate(305 202)" fill="#fff" opacity="0.2" />
              <path id="Trazado_5" data-name="Trazado 5" d="M767.813,595.82c-21.84,86.33-26.76,146.82-26.76,146.82h-15.91s1-147.36-56.73-163.81a31.472,31.472,0,0,0-3.81-.89s-58-115.09,23.12-144.87c0,0,.82.61,2.3,1.8C705.053,446.9,787.663,517.25,767.813,595.82Z" transform="translate(305 202)" fill="#AE3C43" />
              <path id="Trazado_6" data-name="Trazado 6" d="M500.273,577.96a38.273,38.273,0,0,0-7.5,2.14,979.261,979.261,0,0,1-18.48-144.76c1.84-1.47,2.86-2.25,2.86-2.25C558.243,462.87,500.273,577.96,500.273,577.96Z" transform="translate(305 202)" opacity="0.1" />
              <path id="Trazado_7" data-name="Trazado 7" d="M690.053,434.89a900.908,900.908,0,0,1-21.61,144,31.472,31.472,0,0,0-3.81-.89s-58-115.09,23.12-144.87C687.723,433.09,688.543,433.7,690.053,434.89Z" transform="translate(305 202)" opacity="0.1" />
              <path id="Trazado_8" data-name="Trazado 8" d="M660.276,594.78q-8.4,33.139-19.69,68s-35.72,37.21-122,0c0,0-8.62-24.3-18.1-65.61-20.87-90.83-45.9-263.92,7.43-441.71A661.745,661.745,0,0,1,575.1,3s45.56,52.31,79,152.43S708.816,403.5,660.276,594.78Z" transform="translate(305 202)" fill="#e3e8f4" />
              <path id="Trazado_9" data-name="Trazado 9" d="M582.433,373.23A71.63,71.63,0,1,0,510.8,301.6,71.63,71.63,0,0,0,582.433,373.23Z" transform="translate(305 202)" fill="#AE3C43" />
              <path id="Trazado_10" data-name="Trazado 10" d="M633.233,301.64a50.8,50.8,0,0,1-83,39.29,51.34,51.34,0,0,1-9.52-10.33,50,50,0,0,1-3.28-5.39,50.693,50.693,0,0,1-5.79-23.57v-1.21a50.861,50.861,0,0,1,37-47.72,52.532,52.532,0,0,1,12.24-1.86h1.52a50.8,50.8,0,0,1,50.83,50.79Z" transform="translate(305 202)" fill="#508ebc" />
              <path id="Trazado_11" data-name="Trazado 11" d="M660.363,599.78q-5.7,22.44-12.7,45.65-3.32,11.07-7,22.32s-35.72,37.21-122,0c0,0-2.8-7.89-7-22.32-3.14-10.9-7.05-25.51-11.13-43.29,0,0,32.12,13.71,77.71,13.71a214.091,214.091,0,0,0,82.12-16.07Z" transform="translate(305 202)" fill="#AE3C43" />
              <path id="Trazado_12" data-name="Trazado 12" d="M647.663,645.43q-3.32,11.07-7,22.32s-35.72,37.21-122,0c0,0-2.8-7.89-7-22.32C511.653,645.43,599.593,670.73,647.663,645.43Z" transform="translate(305 202)" fill="#e3e8f4" />
              <path id="Trazado_13" data-name="Trazado 13" d="M568.673,252.64l-.11.08-36.9,47.64v1.21a50.7,50.7,0,0,0,5.79,23.57l43.48-74.36Z" transform="translate(305 202)" fill="#fff" opacity="0.2" />
              <path id="Trazado_14" data-name="Trazado 14" d="M580.453,295.64l-30.22,45.25a51.341,51.341,0,0,1-9.52-10.33l36-38.64Z" transform="translate(305 202)" fill="#fff" opacity="0.2" />
              <path id="Trazado_15" data-name="Trazado 15" d="M537.973,667.76s-8.62-24.31-18.1-65.61c-20.87-90.84-45.9-263.93,7.43-441.72a664.145,664.145,0,0,1,58.85-138.09c-6.77-9.49-11-14.33-11-14.33a661.7,661.7,0,0,0-67.2,152.42c-53.33,177.79-28.3,350.88-7.43,441.72,9.48,41.3,18.1,65.61,18.1,65.61,34.09,14.69,60.28,17.77,79.5,16.13C581.7,682.64,561.763,678.01,537.973,667.76Z" transform="translate(305 202)" fill="#fff" opacity="0.2" />
              <path id="Trazado_16" data-name="Trazado 16" d="M653.22,152.43c-81.27,38.91-146.22,0-146.22,0A661.735,661.735,0,0,1,574.23,0S619.79,52.31,653.22,152.43Z" transform="translate(305 202)" fill="#AE3C43" />
            </g>
          </g>
        </svg>