<svg xmlns="http://www.w3.org/2000/svg" viewBox="0 0 500 500"><g id="freepik--background-complete--inject-6"><rect y="382.4" width="500" height="0.25" style="fill:#ebebeb"></rect><rect x="52.46" y="391.92" width="33.12" height="0.25" style="fill:#ebebeb"></rect><rect x="171.14" y="389.21" width="42.53" height="0.25" style="fill:#ebebeb"></rect><rect x="93.47" y="395.43" width="19.19" height="0.25" style="fill:#ebebeb"></rect><rect x="434.67" y="399.53" width="15.23" height="0.25" style="fill:#ebebeb"></rect><rect x="391.47" y="399.53" width="34.29" height="0.25" style="fill:#ebebeb"></rect><rect x="308" y="392.33" width="23.83" height="0.25" style="fill:#ebebeb"></rect><path d="M237,337.8H43.91a5.71,5.71,0,0,1-5.7-5.71V60.66A5.71,5.71,0,0,1,43.91,55H237a5.71,5.71,0,0,1,5.71,5.71V332.09A5.71,5.71,0,0,1,237,337.8ZM43.91,55.2a5.46,5.46,0,0,0-5.45,5.46V332.09a5.46,5.46,0,0,0,5.45,5.46H237a5.47,5.47,0,0,0,5.46-5.46V60.66A5.47,5.47,0,0,0,237,55.2Z" style="fill:#ebebeb"></path><path d="M453.31,337.8H260.21a5.72,5.72,0,0,1-5.71-5.71V60.66A5.72,5.72,0,0,1,260.21,55h193.1A5.71,5.71,0,0,1,459,60.66V332.09A5.71,5.71,0,0,1,453.31,337.8ZM260.21,55.2a5.47,5.47,0,0,0-5.46,5.46V332.09a5.47,5.47,0,0,0,5.46,5.46h193.1a5.47,5.47,0,0,0,5.46-5.46V60.66a5.47,5.47,0,0,0-5.46-5.46Z" style="fill:#ebebeb"></path><rect x="114.67" y="77.67" width="318.44" height="280.54" style="fill:#e0e0e0"></rect><rect x="108.89" y="101.67" width="318.44" height="256.54" style="fill:#f5f5f5"></rect><rect x="151.33" y="144.78" width="228.89" height="170.32" style="fill:#fff"></rect><rect x="66.89" y="101.67" width="42" height="256.54" transform="translate(175.78 459.87) rotate(180)" style="fill:#f0f0f0"></rect><rect x="66.89" y="101.67" width="42" height="16.33" transform="translate(175.78 219.67) rotate(180)" style="fill:#ebebeb"></rect><rect x="66.89" y="77.67" width="360.44" height="24" transform="translate(494.22 179.33) rotate(180)" style="fill:#e6e6e6"></rect><rect x="108.89" y="101.67" width="97" height="10" transform="translate(314.78 213.33) rotate(180)" style="fill:#fafafa"></rect><rect x="205.89" y="101.67" width="97" height="10" style="fill:#ebebeb"></rect><rect x="70.04" y="121.33" width="14.7" height="14.7" style="fill:#e6e6e6"></rect><rect x="91.04" y="121.33" width="14.7" height="14.7" style="fill:#e6e6e6"></rect><rect x="91.04" y="142.33" width="14.7" height="14.7" transform="translate(196.78 299.37) rotate(180)" style="fill:#e6e6e6"></rect><rect x="70.04" y="142.33" width="14.7" height="14.7" transform="translate(154.78 299.37) rotate(180)" style="fill:#e6e6e6"></rect><rect x="70.04" y="163.33" width="14.7" height="14.7" style="fill:#e6e6e6"></rect><rect x="91.04" y="163.33" width="14.7" height="14.7" style="fill:#e6e6e6"></rect><rect x="91.04" y="184.33" width="14.7" height="14.7" transform="translate(196.78 383.37) rotate(180)" style="fill:#e6e6e6"></rect><rect x="70.04" y="184.33" width="14.7" height="14.7" transform="translate(154.78 383.37) rotate(180)" style="fill:#e6e6e6"></rect><rect x="70.04" y="205.33" width="14.7" height="14.7" style="fill:#e6e6e6"></rect><rect x="91.04" y="205.33" width="14.7" height="14.7" style="fill:#e6e6e6"></rect><rect x="91.04" y="226.33" width="14.7" height="14.7" transform="translate(196.78 467.37) rotate(180)" style="fill:#e6e6e6"></rect><rect x="70.04" y="226.33" width="14.7" height="14.7" transform="translate(154.78 467.37) rotate(180)" style="fill:#e6e6e6"></rect><rect x="70.04" y="289.33" width="9.01" height="9.01" transform="translate(149.09 587.67) rotate(180)" style="fill:#e6e6e6"></rect><rect x="96.73" y="289.33" width="9.01" height="9.01" transform="translate(202.47 587.67) rotate(180)" style="fill:#e6e6e6"></rect><rect x="83.39" y="289.33" width="9.01" height="9.01" transform="translate(175.78 587.67) rotate(180)" style="fill:#e6e6e6"></rect><rect x="83.8" y="261.09" width="21.85" height="21.85" transform="translate(189.45 544.03) rotate(180)" style="fill:#e6e6e6"></rect><rect x="70.04" y="247.33" width="21.85" height="21.85" transform="translate(161.93 516.52) rotate(180)" style="fill:#fff"></rect><circle cx="315.37" cy="201.91" r="36.67" transform="translate(65.55 480.86) rotate(-80.78)" style="fill:#f5f5f5"></circle><rect x="283.87" y="245.8" width="63" height="24.07" transform="translate(573.2 -57.53) rotate(90)" style="fill:#f5f5f5"></rect></g><g id="freepik--Shadow--inject-6"><ellipse id="freepik--path--inject-6" cx="250" cy="416.24" rx="193.89" ry="11.32" style="fill:#f5f5f5"></ellipse></g><g id="freepik--pen-tool--inject-6"><path d="M283.28,242.9,255,271.22s-17.45-19.57-40.56-17.36c-8.54-18.76-18.3-58.73-21-70.13L232,222.29a6,6,0,1,0,2.37-2.37l-38.56-38.56c11.41,2.69,51.38,12.45,70.14,21C263.71,225.45,283.28,242.9,283.28,242.9Z" style="fill:#508EBC"></path><path d="M265.91,202.36c-18.75-8.55-58.73-18.31-70.14-21l38.56,38.56a5.95,5.95,0,0,1,7.06,9.43l27.72,27.71,14.17-14.16S263.71,225.45,265.91,202.36Z" style="opacity:0.2"></path><path d="M361.4,349.36h0a12.8,12.8,0,0,1-18.06,0l-83-83,18.06-18.07,83,83A12.81,12.81,0,0,1,361.4,349.36Z" style="fill:#508EBC"></path><path d="M361.4,349.36h0a12.8,12.8,0,0,1-18.06,0l-83-83,18.06-18.07,83,83A12.81,12.81,0,0,1,361.4,349.36Z" style="fill:#fff;opacity:0.7000000000000001"></path><rect x="256.98" y="255.39" width="33.86" height="12.94" rx="2.93" transform="translate(-104.94 270.38) rotate(-45)" style="fill:#508EBC"></rect><rect x="245.78" y="250.29" width="46.67" height="13.55" rx="3.52" transform="translate(-102.95 265.58) rotate(-45)" style="fill:#508EBC"></rect><rect x="245.78" y="250.29" width="46.67" height="13.55" rx="3.52" transform="translate(-102.95 265.58) rotate(-45)" style="opacity:0.4"></rect><rect x="258.22" y="258.33" width="5.7" height="13.55" transform="translate(-110.99 262.25) rotate(-45)" style="fill:#fff"></rect><rect x="265.47" y="252.76" width="2.34" height="13.55" transform="translate(638.7 254.54) rotate(135)" style="fill:#fff"></rect><path d="M186.88,362.26c-51.68-51.67-51.68-135.75,0-187.43s135.76-51.68,187.43,0l-1.53,1.53c-50.83-50.83-133.54-50.83-184.37,0s-50.83,133.54,0,184.37Z" style="fill:#508EBC"></path><rect x="56.19" y="174.51" width="262.9" height="2.17" transform="translate(-69.21 184.12) rotate(-45)" style="fill:#508EBC"></rect><rect x="177.82" y="165.78" width="19.64" height="19.64" transform="translate(-69.21 184.12) rotate(-45)" style="fill:#fff"></rect><path d="M187.64,191,172.22,175.6l15.42-15.43,15.43,15.43ZM175.29,175.6,187.64,188,200,175.6l-12.36-12.36Z" style="fill:#508EBC"></path><rect x="177.82" y="351.68" width="19.64" height="19.64" transform="translate(-200.66 238.56) rotate(-45)" style="fill:#fff"></rect><path d="M187.64,376.92,172.22,361.5l15.42-15.43,15.43,15.43ZM175.29,361.5l12.35,12.35L200,361.5l-12.36-12.36Z" style="fill:#508EBC"></path><rect x="364.13" y="165.37" width="19.64" height="19.64" transform="translate(-14.35 315.73) rotate(-45)" style="fill:#fff"></rect><path d="M374,190.62l-15.43-15.43L374,159.77l15.42,15.42Zm-12.36-15.43L374,187.55l12.35-12.36L374,162.84Z" style="fill:#508EBC"></path><circle cx="281" cy="82.24" r="9.82" style="fill:#fff"></circle><path d="M281,93.15a10.91,10.91,0,1,1,7.71-18.62h0A10.91,10.91,0,0,1,281,93.15Zm0-19.64a8.72,8.72,0,1,0,6.18,2.56h0A8.69,8.69,0,0,0,281,73.51Z" style="fill:#508EBC"></path><circle cx="94.69" cy="268.55" r="9.82" style="fill:#fff"></circle><path d="M94.69,279.45a10.91,10.91,0,1,1,7.72-18.62h0a10.91,10.91,0,0,1-7.72,18.62Zm0-19.64a8.74,8.74,0,1,0,6.18,2.56A8.72,8.72,0,0,0,94.69,259.81Z" style="fill:#508EBC"></path></g></svg>
