<?xml version="1.0" encoding="UTF-8"?>
<svg width="300px" height="200px" viewBox="0 0 300 200" version="1.1" xmlns="http://www.w3.org/2000/svg" xmlns:xlink="http://www.w3.org/1999/xlink">
    <!-- Generator: Sketch 59 (86127) - https://sketch.com -->
    <title>feature-organize</title>
    <desc>Created with Sketch.</desc>
    <defs>
        <linearGradient x1="65.8417089%" y1="-43.8229401%" x2="61.7499487%" y2="90.5464655%" id="linearGradient-1">
            <stop stop-color="#D7DBE2" offset="0%"></stop>
            <stop stop-color="#B2BAC5" offset="100%"></stop>
        </linearGradient>
        <linearGradient x1="32.2342005%" y1="45.9284243%" x2="9.24655518%" y2="75.5455279%" id="linearGradient-2">
            <stop stop-color="#E2E5EA" offset="0%"></stop>
            <stop stop-color="#BDC3CE" offset="100%"></stop>
        </linearGradient>
        <linearGradient x1="57.0450318%" y1="60.3964005%" x2="73.794153%" y2="100%" id="linearGradient-3">
            <stop stop-color="#F0F2F4" offset="0%"></stop>
            <stop stop-color="#D5D9DF" offset="100%"></stop>
        </linearGradient>
        <linearGradient x1="56.3234843%" y1="54.3280123%" x2="12.7215468%" y2="63.0064656%" id="linearGradient-4">
            <stop stop-color="#D7DBE3" offset="0%"></stop>
            <stop stop-color="#9FA6B5" offset="100%"></stop>
        </linearGradient>
        <linearGradient x1="56.9433826%" y1="60.3964005%" x2="68.6552093%" y2="109.349976%" id="linearGradient-5">
            <stop stop-color="#EFF2F4" offset="0%"></stop>
            <stop stop-color="#CFD5DF" offset="100%"></stop>
        </linearGradient>
        <linearGradient x1="58.8462022%" y1="40.2138925%" x2="12.7215468%" y2="74.1724056%" id="linearGradient-6">
            <stop stop-color="#D8DBE3" offset="0%"></stop>
            <stop stop-color="#9198A5" offset="100%"></stop>
        </linearGradient>
        <linearGradient x1="56.8993814%" y1="60.3964005%" x2="68.5369886%" y2="109.349976%" id="linearGradient-7">
            <stop stop-color="#F0F2F4" offset="0%"></stop>
            <stop stop-color="#C9CED7" offset="100%"></stop>
        </linearGradient>
        <linearGradient x1="34.9065414%" y1="63.6826649%" x2="0%" y2="94.4343235%" id="linearGradient-8">
            <stop stop-color="#D7DBE2" offset="0%"></stop>
            <stop stop-color="#B2BAC5" offset="100%"></stop>
        </linearGradient>
        <linearGradient x1="56.8993814%" y1="60.3964005%" x2="69.3414022%" y2="114.602623%" id="linearGradient-9">
            <stop stop-color="#E5E8ED" offset="0%"></stop>
            <stop stop-color="#BDC3CE" offset="100%"></stop>
        </linearGradient>
        <linearGradient x1="64.804124%" y1="58.6768315%" x2="108.352953%" y2="91.7299793%" id="linearGradient-10">
            <stop stop-color="#E5E8ED" offset="0%"></stop>
            <stop stop-color="#BDC3CE" offset="100%"></stop>
        </linearGradient>
        <linearGradient x1="35.5362585%" y1="28.1295517%" x2="56.5404201%" y2="106.744238%" id="linearGradient-11">
            <stop stop-color="#D7DBE2" offset="0%"></stop>
            <stop stop-color="#B2BAC5" offset="100%"></stop>
        </linearGradient>
    </defs>
    <g id="中文版" stroke="none" strokeWidth="1" fill="none" fill-rule="evenodd">
        <g id="编组-39" transform="translate(-631.000000, -284.000000)">
            <g id="feature-organize" transform="translate(631.000000, 284.000000)">
                <rect id="矩形" fill-opacity="0.01" fill="#FFFFFF" x="0" y="0" width="300" height="200"></rect>
                <g id="Group-88" transform="translate(33.000000, 38.000000)">
                    <path d="M173.376818,160.858636 C170.917289,155.93822 164.276927,152.411196 156.46664,152.411196 C154.89005,152.411196 153.361088,152.555192 151.905398,152.825506 C147.904695,153.568333 143.706154,152.34351 141.388286,149.924905 C134.501238,142.738072 122.855112,138.012955 109.639112,138.012955 C99.7490946,138.012955 90.7383523,140.659624 83.941064,145.003627 C81.3807846,146.639311 77.8368158,147.199341 74.5267098,146.504369 C72.0476413,145.984003 69.4201951,145.704203 66.7011576,145.704203 C59.2010595,145.704203 52.4056031,147.829644 47.4535722,151.273892 C44.8749746,153.067367 41.1740795,153.88176 37.6893396,153.189806 C36.1835803,152.890606 34.5959994,152.730228 32.9546851,152.730228 C25.3971899,152.730228 2.43876836,156.117568 0,160.858636 L173.376818,160.858636 Z" id="Fill-1-Copy" fill="#F3F4F6" fill-rule="nonzero"></path>
                    <path d="M71.3457021,18.1513636 C71.2497137,18.1513636 71.1527653,18.1213672 71.0706952,18.0587348 C70.8698394,17.9065931 70.8304841,17.6207875 70.9826258,17.4199317 L71.8105262,16.3251835 C71.354581,16.0900118 70.9579088,15.7384541 70.6769026,15.3110656 C70.5528376,15.1224483 70.5857136,14.8716785 70.7536934,14.7209766 C71.0603765,14.4462097 71.3670595,14.1731226 71.6751825,13.8988356 C71.61255,13.7848493 71.4870451,13.6483058 71.371859,13.5232808 C71.0730949,13.1990799 70.6641842,12.7551333 70.8722391,12.1580852 C70.9747068,11.8641206 71.1997997,11.6786229 71.3485818,11.5557577 C71.4056949,11.5084834 71.4983237,11.4429713 71.6101503,11.3649807 C72.0881727,11.0319008 72.3655793,10.7921696 72.4373307,10.6513066 C72.3247842,10.5685166 71.9009953,10.3774996 70.3682998,10.340304 L70.2675119,10.3376644 C69.5516781,10.315587 68.8089675,10.3772596 68.0902541,10.4365325 C66.886319,10.5351606 65.6413489,10.6376282 64.3973387,10.3789394 C64.211601,10.340544 63.8250076,10.2603937 63.5742378,9.95611029 C63.1756457,9.48288727 63.3551441,8.78841088 63.7518164,8.41837543 C64.0992945,8.09753405 64.5492404,7.98690737 64.8777608,7.90603711 L66.3682214,7.53360195 C69.1972408,6.82736697 72.0253003,6.121132 74.8547996,5.41609688 C74.6352261,5.38802026 74.3688582,5.38514061 74.054256,5.40793786 C70.6365875,5.64790897 67.2193989,5.88788008 63.8024503,6.13001093 C62.3938199,6.22671929 61.5282441,5.86556277 61.2263604,5.05734007 C61.0890969,4.68994431 61.105415,4.30359082 61.2741147,3.9407545 C61.6854252,3.05526111 62.8425658,2.58515771 63.1874043,2.4622925 C67.45913,0.934636421 76.238953,0.144411559 77.9554663,0.00162874897 C78.2057562,-0.0194887086 78.4265296,0.167208814 78.4476471,0.418218594 C78.4685246,0.668988403 78.2818271,0.889521852 78.0308173,0.910399339 C76.3342215,1.05150235 67.6592659,1.83140846 63.4940874,3.32090913 C62.8298474,3.55800058 62.2699948,3.96139202 62.1010551,4.32494825 C62.0348231,4.46749109 62.0283439,4.59851531 62.0806576,4.73793853 C62.260156,5.21836069 63.0815771,5.26515505 63.7390979,5.22052043 C67.1550866,4.97814961 70.5722752,4.7381785 73.9899438,4.49820739 C74.4578874,4.46437146 75.8869154,4.36214377 76.4066928,5.39641925 C76.4688453,5.52000437 76.471245,5.66542686 76.413412,5.7914117 C76.355579,5.91715656 76.2437524,6.00978541 76.1093686,6.04338136 C72.9350308,6.83384619 69.7626127,7.62599082 66.5889948,8.41837543 L65.0970944,8.79105056 C64.7839321,8.86808128 64.5324424,8.93863279 64.3721417,9.08669496 C64.2713538,9.18076364 64.2444771,9.33626492 64.2747134,9.37226058 C64.3243874,9.43249333 64.518764,9.47280848 64.5825964,9.48600689 C65.6977421,9.71781898 66.8236865,9.6254301 68.0153831,9.52752189 C68.7592935,9.46656923 69.5298407,9.40321686 70.2941487,9.42625408 L70.3906171,9.4286538 C71.8239645,9.46344961 73.1745219,9.61247166 73.3477811,10.4602896 C73.4934435,11.1636449 72.6739422,11.7350161 72.1316075,12.1129706 C72.0452179,12.1732034 71.9729866,12.2226374 71.9290719,12.259113 C71.8712388,12.3066273 71.7517332,12.4050155 71.7332555,12.4580491 C71.7051788,12.5391593 71.9002754,12.7510538 72.0425782,12.9055952 C72.3204648,13.2072389 72.6660232,13.5825537 72.6235483,14.1061707 C72.6141894,14.2232766 72.5601959,14.3319835 72.4721265,14.410214 L72.4490893,14.4308516 C72.1928001,14.6588241 71.9379508,14.8855968 71.6831015,15.1130894 C71.9473097,15.3832969 72.2861489,15.5824729 72.6528247,15.6775015 C72.800407,15.7156569 72.9191927,15.8250837 72.9693466,15.9690664 C73.0192606,16.113049 72.9940637,16.2726298 72.9019148,16.3942952 L71.7092583,17.9709054 C71.6197491,18.0892111 71.4834455,18.1513636 71.3457021,18.1513636" id="Fill-1" fill="url(#linearGradient-1)"></path>
                    <g id="Group-49" transform="translate(34.439161, 21.593864)">
                        <path d="M17.3794351,60.9726603 L22.0449132,96.4694771 L2.95886364,127.770923 L9.17209252,137.901199 C9.4880422,138.415835 10.095293,138.640429 10.648317,138.44644 C11.2950055,138.220434 11.6580115,137.500038 11.4729232,136.810717 L9.24334926,128.504974 C9.24334926,128.504974 28.949198,105.305394 29.9588925,99.648637 C31.3557935,91.8226868 32.8959786,72.7374696 32.8959786,72.7374696 L35.4416661,72.3229261 L42.0626783,98.1810065 L41.131411,139.264773 L54.4062227,139.264773 C55.3621386,139.264773 56.0011924,138.653404 55.9276949,137.651441 C55.8707791,136.872189 55.3205629,136.440229 54.5887249,136.298504 L46.7176702,135.596403 C46.7176702,135.596403 52.3039295,100.137376 51.6057031,95.2466872 C50.9074767,90.3555272 42.7512806,58.5449545 42.7512806,58.5449545 L17.3794351,60.9726603 Z" id="Fill-8" fill="#0F215F" fill-rule="nonzero"></path>
                        <g id="Group-45" transform="translate(54.785227, 44.964318) scale(-1, 1) translate(-54.785227, -44.964318) translate(41.285227, 18.464318)" fill-rule="nonzero">
                            <path d="M14.2126305,24.8132061 L5.45635548,42.8515891 L9.99094178,45.8058019 C9.99094178,45.8058019 19.8418726,30.4114249 21.0924914,25.901346 C21.5744703,24.1644453 23.3063672,15.6349815 26.2881818,0.312954545 C21.710958,-0.312954545 18.7794583,2.32241817 17.4936828,8.21907269 L14.2126305,24.8132061 Z" id="Fill-1" fill="#3B82FF"></path>
                            <path d="M3.42404784,42.3633019 C3.42404784,42.3633019 0.608584045,46.8659569 0.765079702,47.486863 C0.92157536,48.1082516 2.79806521,45.4687975 2.79806521,45.4687975 C2.79806521,45.4687975 -0.955886516,50.5923586 0.452088388,51.6793062 C1.85957728,52.7657713 3.8930488,51.3686119 5.14452805,49.8161053 C6.39552129,48.2631163 7.95999185,45.3129679 7.95999185,45.3129679 L3.42404784,42.3633019 Z" id="Fill-3" fill="#FFD5A7"></path>
                        </g>
                        <polygon id="Fill-27" fill="#3B82FF" fill-rule="nonzero" transform="translate(30.905991, 38.216307) scale(-1, 1) translate(-30.905991, -38.216307) " points="39.3928043 15.4599545 17.3794351 18.7730605 20.3218823 59.4613636 44.4325473 60.9726603"></polygon>
                        <path d="M25.6566859,53.7329953 C21.2950003,50.7011342 19.0029939,49.1432463 18.7806667,49.0593315 C18.7779195,49.0580451 19.5128728,42.5969639 20.9855266,29.6760882 L25.6566859,53.7329953 Z" id="Path-Copy-4" fill-opacity="0.25" fill="#000000" fill-rule="nonzero"></path>
                        <g id="Group-10" transform="translate(54.769621, 62.558082) scale(-1, 1) translate(-54.769621, -62.558082) translate(34.769621, 48.058082)">
                            <g id="Group-4-Copy-2" transform="translate(19.533481, 14.500000) scale(-1, 1) translate(-19.533481, -14.500000) translate(0.033481, 0.000000)">
                                <polygon id="Fill-1" fill="url(#linearGradient-2)" points="0.0642619129 28.2662093 32.1685681 28.2662093 32.1685681 0 0.0642619129 0"></polygon>
                                <polygon id="Fill-2" fill="url(#linearGradient-3)" points="18.6532953 28.2662093 38.1525357 28.2662093 38.1525357 0 18.6532953 0"></polygon>
                            </g>
                            <polygon id="Rectangle-4-Copy-5" fill="#FAFAFA" points="2.44294746 22.0589489 10.0134027 22.0589489 10.0134027 26.4707386 2.44294746 26.4707386"></polygon>
                        </g>
                        <g id="Group-44" transform="translate(20.377072, 42.502142) scale(-1, 1) rotate(-72.000000) translate(-20.377072, -42.502142) translate(-5.622928, 30.502142)" fill-rule="nonzero">
                            <path d="M48.2633214,5.64966839 L31.6417826,15.7589008 L21.2728882,8.54765401 C11.7093437,0.761886796 6.11399945,-1.51928933 4.48685539,1.70412564 C2.0461393,6.53924809 25.4083569,21.3433112 30.7154984,23.0668999 C34.2535926,24.215959 41.1008087,19.256171 51.2571465,8.18753583 L48.2633214,5.64966839 Z" id="Fill-15" fill="#3B82FF" transform="translate(27.782953, 11.758718) scale(-1, 1) translate(-27.782953, -11.758718) "></path>
                            <path d="M0.330758508,5.44399468 C-0.196945343,6.03214785 3.19452758,-0.0223523214 3.92539468,0.406680312 C4.34640748,0.654034401 3.26400164,3.24928921 3.26400164,3.24928921 C3.26400164,3.24928921 5.60944587,-1.07637342 7.59397236,0.654034401 C8.82435794,1.72661598 3.7451095,8.06930308 3.7451095,8.06930308 L0.330758508,5.44399468 Z" id="Fill-17" fill="#FFD5A7" transform="translate(4.030723, 4.157371) scale(-1, 1) translate(-4.030723, -4.157371) "></path>
                        </g>
                        <g id="Group-47" transform="translate(38.691364, 9.000000) scale(-1, 1) translate(-38.691364, -9.000000) translate(30.691364, 0.000000)">
                            <path d="M7.99538762,17.9141527 L8.64890398,13.5511394 C10.4503916,14.1765177 11.6766385,14.3388203 12.3276444,14.0380472 C13.3041534,13.5868875 14.1828474,11.6931096 14.3185546,9.23477337 C15.0212525,9.06610817 15.6615331,8.81024469 15.6945539,8.4348418 C15.7307962,8.02586963 15.0329306,7.41425358 14.302447,6.89147332 C14.26701,6.36378049 14.2126466,5.87538829 14.1470078,5.45413467 C13.7169325,2.68753409 11.4260166,-0.0524566908 7.1035186,0.000762911982 C2.78142328,0.0543918963 2.26678266,7.95668414 1.95832043,10.0760525 C1.86999661,10.6827559 1.30801808,12.9066512 0.272384835,16.7477382 L7.99538762,17.9141527 Z" id="Fill-6" fill="#FFD5A7" fill-rule="nonzero" transform="translate(7.984146, 8.957076) scale(-1, 1) translate(-7.984146, -8.957076) "></path>
                            <path d="M11.114084,13.5511394 C9.05940816,12.5560077 7.82296849,12.1073703 7.40476502,12.2052273 C6.98656155,12.3030842 8.10471639,13.5601432 10.7592296,15.9764041 L11.114084,13.5511394 Z" id="Fill-5" fill="#F09B8B" transform="translate(9.216736, 14.084245) scale(-1, 1) translate(-9.216736, -14.084245) "></path>
                            <path d="M6.26307707,6.54713227 C6.19245217,6.11401216 5.6849466,4.85643773 4.81615384,5.54717711 C3.94771598,6.23755313 4.07086594,7.48713373 4.28132104,8.08812422 C4.49177615,8.68875136 5.23848365,8.9540011 5.23848365,8.9540011 C5.23848365,8.9540011 4.78811682,9.66617847 4.23021559,10.0400716 C3.90299871,10.2595385 3.03280826,11.3147796 3.03028129,10.5804376 C3.02783967,9.84609548 3.13464237,8.36282121 3.13535217,8.37117839 C2.90750701,5.71831769 3.7287433,0.910393724 7.33487206,0.179685207 C10.1069882,-0.338823522 13.0355094,0.212970281 14.1317924,2.51628271 C8.93306545,5.49226249 6.31016034,6.83587901 6.26307707,6.54713227 Z" id="Fill-8" fill="#172B4D" fill-rule="nonzero" transform="translate(8.581037, 5.418339) scale(-1, 1) translate(-8.581037, -5.418339) "></path>
                        </g>
                    </g>
                    <g id="Group-86" transform="translate(130.032570, 55.705909)">
                        <g id="Group-4-Copy-3" transform="translate(36.615682, 23.784545)">
                            <polygon id="Fill-1" fill="url(#linearGradient-4)" points="0.0306753144 34.8866812 53.4870204 34.8866812 53.4870204 0 0.0306753144 0"></polygon>
                            <polygon id="Fill-2" fill="url(#linearGradient-5)" points="36.9269961 34.8866812 60.81907 34.8866812 60.81907 0 36.9269961 0"></polygon>
                        </g>
                        <g id="Group-4" transform="translate(43.500682, 58.522500)">
                            <polygon id="Fill-1" fill="url(#linearGradient-6)" points="0.103072934 46.5035169 52.3721841 46.5035169 52.3721841 0 0.103072934 0"></polygon>
                            <polygon id="Fill-2" fill="url(#linearGradient-7)" points="30.3679305 46.5035169 62.1146987 46.5035169 62.1146987 0 30.3679305 0"></polygon>
                        </g>
                        <g id="Group-6" transform="translate(98.649091, 99.012273) scale(-1, 1) translate(-98.649091, -99.012273) translate(94.649091, 94.512273)" fill="#FFFFFF">
                            <polygon id="Fill-1" points="0 8.20572226 7.91609788 8.20572226 7.91609788 6.78826892 0 6.78826892"></polygon>
                            <polygon id="Fill-2" points="0 2.97609677 1.02334532 2.97609677 1.02334532 5.38454896 2.23063753 5.38454896 2.23063753 2.97609677 3.25360745 2.97609677 1.62699143 0"></polygon>
                            <polygon id="Fill-2-Copy" points="4.12941986 2.97609677 5.15276519 2.97609677 5.15276519 5.38454896 6.3600574 5.38454896 6.3600574 2.97609677 7.38302732 2.97609677 5.75641129 0"></polygon>
                        </g>
                        <polygon id="Rectangle-4" fill="#A0A6B5" transform="translate(91.226250, 63.216818) scale(-1, 1) translate(-91.226250, -63.216818) " points="87.9402273 57.8965909 94.5122727 57.8965909 94.5122727 68.5370455 92.8103446 67.2780206 91.1707133 68.5370455 89.4477083 67.2780206 87.9402273 68.5370455"></polygon>
                        <polygon id="Rectangle-4-Copy-3" fill="#A0A6B5" transform="translate(85.593068, 29.104773) scale(-1, 1) translate(-85.593068, -29.104773) " points="82.3070455 23.7845455 88.8790909 23.7845455 88.8790909 34.425 87.1771628 33.1659751 85.5375314 34.425 83.8145265 33.1659751 82.3070455 34.425"></polygon>
                        <g id="Group-4-Copy" transform="translate(0.000000, 58.522500)">
                            <polygon id="Fill-1" fill="url(#linearGradient-8)" points="0.103072934 46.5035169 52.3721841 46.5035169 52.3721841 0 0.103072934 0"></polygon>
                            <polygon id="Fill-2" fill="url(#linearGradient-9)" points="30.3679305 46.5035169 62.1146987 46.5035169 62.1146987 0 30.3679305 0"></polygon>
                        </g>
                        <polygon id="Rectangle-4-Copy-6" fill="#F4F4F4" transform="translate(5.476705, 101.240795) scale(-1, 1) translate(-5.476705, -101.240795) " points="1.87772727 100.771364 9.07568182 100.771364 9.07568182 101.710227 1.87772727 101.710227"></polygon>
                        <polygon id="Rectangle-4-Copy-7" fill="#F4F4F4" transform="translate(5.476705, 99.050114) scale(-1, 1) translate(-5.476705, -99.050114) " points="1.87772727 98.5806818 9.07568182 98.5806818 9.07568182 99.5195455 1.87772727 99.5195455"></polygon>
                        <polygon id="Fill-1" fill="url(#linearGradient-10)" transform="translate(64.328386, 11.946072) scale(-1, 1) translate(-64.328386, -11.946072) " points="51.2520514 23.8921436 77.4047214 23.8921436 77.4047214 6.75015599e-13 51.2520514 6.75015599e-13"></polygon>
                        <polygon id="Fill-2" fill="url(#linearGradient-11)" transform="translate(54.319611, 11.946072) scale(-1, 1) translate(-54.319611, -11.946072) " points="46.3774178 23.8921436 62.261804 23.8921436 62.261804 6.75015599e-13 46.3774178 6.75015599e-13"></polygon>
                    </g>
                </g>
            </g>
        </g>
    </g>
</svg>