<?xml version="1.0" encoding="UTF-8"?>
<svg width="300px" height="200px" viewBox="0 0 300 200" version="1.1" xmlns="http://www.w3.org/2000/svg" xmlns:xlink="http://www.w3.org/1999/xlink">
    <!-- Generator: Sketch 59 (86127) - https://sketch.com -->
    <title>feature-collect</title>
    <desc>Created with Sketch.</desc>
    <defs>
        <linearGradient x1="61.5743322%" y1="41.7841976%" x2="64.804124%" y2="60.3597976%" id="linearGradient-1">
            <stop stop-color="#D9DBE2" offset="0%"></stop>
            <stop stop-color="#B3BAC5" offset="100%"></stop>
        </linearGradient>
        <linearGradient x1="61.5743322%" y1="47.2474125%" x2="64.804124%" y2="53.4709025%" id="linearGradient-2">
            <stop stop-color="#D9DBE2" offset="0%"></stop>
            <stop stop-color="#B3BAC5" offset="100%"></stop>
        </linearGradient>
        <linearGradient x1="102.759274%" y1="50.0586081%" x2="7.35881782%" y2="50.2581544%" id="linearGradient-3">
            <stop stop-color="#E8EAF0" offset="0%"></stop>
            <stop stop-color="#C9CED7" offset="100%"></stop>
        </linearGradient>
        <linearGradient x1="112.61097%" y1="49.4158605%" x2="45.8707063%" y2="50.0671804%" id="linearGradient-4">
            <stop stop-color="#D7DBE3" offset="0%"></stop>
            <stop stop-color="#9FA6B5" offset="100%"></stop>
        </linearGradient>
        <linearGradient x1="48.9614487%" y1="0%" x2="48.9614487%" y2="105.506085%" id="linearGradient-5">
            <stop stop-color="#E8EAF0" offset="0%"></stop>
            <stop stop-color="#C9CED7" offset="100%"></stop>
        </linearGradient>
        <linearGradient x1="48.9614487%" y1="0%" x2="48.9614487%" y2="105.506085%" id="linearGradient-6">
            <stop stop-color="#E8EAF0" offset="0%"></stop>
            <stop stop-color="#C9CED7" offset="100%"></stop>
        </linearGradient>
        <linearGradient x1="66.5891164%" y1="45.5702284%" x2="140.535959%" y2="50%" id="linearGradient-7">
            <stop stop-color="#E8EAF0" offset="0%"></stop>
            <stop stop-color="#C9CED7" offset="100%"></stop>
        </linearGradient>
        <linearGradient x1="48.9614487%" y1="0%" x2="48.9614487%" y2="105.506085%" id="linearGradient-8">
            <stop stop-color="#FAFAFA" offset="0%"></stop>
            <stop stop-color="#EBEBEB" offset="100%"></stop>
        </linearGradient>
        <linearGradient x1="48.9614487%" y1="0%" x2="48.9614487%" y2="105.506085%" id="linearGradient-9">
            <stop stop-color="#FAFAFA" offset="0%"></stop>
            <stop stop-color="#EBEBEB" offset="100%"></stop>
        </linearGradient>
        <linearGradient x1="48.9614487%" y1="0%" x2="48.9614487%" y2="105.506085%" id="linearGradient-10">
            <stop stop-color="#FAFAFA" offset="0%"></stop>
            <stop stop-color="#EBEBEB" offset="100%"></stop>
        </linearGradient>
        <linearGradient x1="61.5743322%" y1="41.8008338%" x2="64.804124%" y2="60.33882%" id="linearGradient-11">
            <stop stop-color="#D9DBE2" offset="0%"></stop>
            <stop stop-color="#B3BAC5" offset="100%"></stop>
        </linearGradient>
        <linearGradient x1="112.61097%" y1="-171.813495%" x2="45.8707063%" y2="75.5102041%" id="linearGradient-12">
            <stop stop-color="#D7DBE3" offset="0%"></stop>
            <stop stop-color="#9FA6B5" offset="100%"></stop>
        </linearGradient>
        <linearGradient x1="112.61097%" y1="-174.451985%" x2="45.8707063%" y2="75.8136501%" id="linearGradient-13">
            <stop stop-color="#D7DBE3" offset="0%"></stop>
            <stop stop-color="#9FA6B5" offset="100%"></stop>
        </linearGradient>
        <linearGradient x1="29.8233674%" y1="45.6656509%" x2="84.610137%" y2="89.7133584%" id="linearGradient-14">
            <stop stop-color="#E5E8ED" offset="0%"></stop>
            <stop stop-color="#BDC3CE" offset="100%"></stop>
        </linearGradient>
        <linearGradient x1="50%" y1="-2.69123198%" x2="38.7156613%" y2="59.0608303%" id="linearGradient-15">
            <stop stop-color="#FFB700" offset="0%"></stop>
            <stop stop-color="#FFB500" offset="50%"></stop>
            <stop stop-color="#FFAE00" offset="68%"></stop>
            <stop stop-color="#FFA300" offset="81%"></stop>
            <stop stop-color="#FF9200" offset="92%"></stop>
            <stop stop-color="#FF7E00" offset="100%"></stop>
        </linearGradient>
        <linearGradient x1="50%" y1="-43.3950802%" x2="45.8879634%" y2="66.0602995%" id="linearGradient-16">
            <stop stop-color="#FFB700" offset="0%"></stop>
            <stop stop-color="#FFB500" offset="50%"></stop>
            <stop stop-color="#FFAE00" offset="68%"></stop>
            <stop stop-color="#FFA300" offset="81%"></stop>
            <stop stop-color="#FF9200" offset="92%"></stop>
            <stop stop-color="#FF7E00" offset="100%"></stop>
        </linearGradient>
        <linearGradient x1="88.2260086%" y1="60.6708936%" x2="9.04420901%" y2="56.9109608%" id="linearGradient-17">
            <stop stop-color="#FFB700" offset="0%"></stop>
            <stop stop-color="#FFB500" offset="50%"></stop>
            <stop stop-color="#FFAE00" offset="68%"></stop>
            <stop stop-color="#FFA300" offset="81%"></stop>
            <stop stop-color="#FF9200" offset="92%"></stop>
            <stop stop-color="#FF7E00" offset="100%"></stop>
        </linearGradient>
        <linearGradient x1="50%" y1="-43.3950802%" x2="48.051889%" y2="66.0602995%" id="linearGradient-18">
            <stop stop-color="#FFB700" offset="0%"></stop>
            <stop stop-color="#FFB500" offset="50%"></stop>
            <stop stop-color="#FFAE00" offset="68%"></stop>
            <stop stop-color="#FFA300" offset="81%"></stop>
            <stop stop-color="#FF9200" offset="92%"></stop>
            <stop stop-color="#FF7E00" offset="100%"></stop>
        </linearGradient>
        <linearGradient x1="50%" y1="-43.3950802%" x2="49.3740029%" y2="66.0602995%" id="linearGradient-19">
            <stop stop-color="#FFB700" offset="0%"></stop>
            <stop stop-color="#FFB500" offset="50%"></stop>
            <stop stop-color="#FFAE00" offset="68%"></stop>
            <stop stop-color="#FFA300" offset="81%"></stop>
            <stop stop-color="#FF9200" offset="92%"></stop>
            <stop stop-color="#FF7E00" offset="100%"></stop>
        </linearGradient>
        <linearGradient x1="50%" y1="-43.3950802%" x2="49.4843503%" y2="66.0602995%" id="linearGradient-20">
            <stop stop-color="#FFB700" offset="0%"></stop>
            <stop stop-color="#FFB500" offset="50%"></stop>
            <stop stop-color="#FFAE00" offset="68%"></stop>
            <stop stop-color="#FFA300" offset="81%"></stop>
            <stop stop-color="#FF9200" offset="92%"></stop>
            <stop stop-color="#FF7E00" offset="100%"></stop>
        </linearGradient>
        <linearGradient x1="50%" y1="1.30042963%" x2="38.7156613%" y2="58.3744206%" id="linearGradient-21">
            <stop stop-color="#FFB700" offset="0%"></stop>
            <stop stop-color="#FFB500" offset="50%"></stop>
            <stop stop-color="#FFAE00" offset="68%"></stop>
            <stop stop-color="#FFA300" offset="81%"></stop>
            <stop stop-color="#FF9200" offset="92%"></stop>
            <stop stop-color="#FF7E00" offset="100%"></stop>
        </linearGradient>
        <linearGradient x1="50%" y1="16.9108817%" x2="38.7156613%" y2="55.6900337%" id="linearGradient-22">
            <stop stop-color="#FFB700" offset="0%"></stop>
            <stop stop-color="#FFB500" offset="50%"></stop>
            <stop stop-color="#FFAE00" offset="68%"></stop>
            <stop stop-color="#FFA300" offset="81%"></stop>
            <stop stop-color="#FF9200" offset="92%"></stop>
            <stop stop-color="#FF7E00" offset="100%"></stop>
        </linearGradient>
        <linearGradient x1="50%" y1="-32.8428457%" x2="38.7156613%" y2="64.2457281%" id="linearGradient-23">
            <stop stop-color="#FFB700" offset="0%"></stop>
            <stop stop-color="#FFB500" offset="50%"></stop>
            <stop stop-color="#FFAE00" offset="68%"></stop>
            <stop stop-color="#FFA300" offset="81%"></stop>
            <stop stop-color="#FF9200" offset="92%"></stop>
            <stop stop-color="#FF7E00" offset="100%"></stop>
        </linearGradient>
        <linearGradient x1="50%" y1="-43.3950802%" x2="46.2833829%" y2="66.0602995%" id="linearGradient-24">
            <stop stop-color="#FFB700" offset="0%"></stop>
            <stop stop-color="#FFB500" offset="50%"></stop>
            <stop stop-color="#FFAE00" offset="68%"></stop>
            <stop stop-color="#FFA300" offset="81%"></stop>
            <stop stop-color="#FF9200" offset="92%"></stop>
            <stop stop-color="#FF7E00" offset="100%"></stop>
        </linearGradient>
        <linearGradient x1="88.2260086%" y1="92.5375228%" x2="9.04420901%" y2="77.5492536%" id="linearGradient-25">
            <stop stop-color="#FFB700" offset="0%"></stop>
            <stop stop-color="#FFB500" offset="50%"></stop>
            <stop stop-color="#FFAE00" offset="68%"></stop>
            <stop stop-color="#FFA300" offset="81%"></stop>
            <stop stop-color="#FF9200" offset="92%"></stop>
            <stop stop-color="#FF7E00" offset="100%"></stop>
        </linearGradient>
        <linearGradient x1="50%" y1="-43.3950802%" x2="47.9292826%" y2="66.0602995%" id="linearGradient-26">
            <stop stop-color="#FFB700" offset="0%"></stop>
            <stop stop-color="#FFB500" offset="50%"></stop>
            <stop stop-color="#FFAE00" offset="68%"></stop>
            <stop stop-color="#FFA300" offset="81%"></stop>
            <stop stop-color="#FF9200" offset="92%"></stop>
            <stop stop-color="#FF7E00" offset="100%"></stop>
        </linearGradient>
    </defs>
    <g id="中文版" stroke="none" strokeWidth="1" fill="none" fill-rule="evenodd">
        <g id="编组-39" transform="translate(-229.000000, -284.000000)">
            <g id="feature-collect" transform="translate(229.000000, 284.000000)">
                <rect id="矩形" fill-opacity="0.01" fill="#FFFFFF" x="0" y="0" width="300" height="200"></rect>
                <g id="Group-89" transform="translate(22.000000, 24.000000)">
                    <path d="M185.752946,171.502946 C183.117849,166.231297 176.003479,162.452504 167.635672,162.452504 C165.946541,162.452504 164.308437,162.606778 162.748836,162.896389 C158.462551,163.69224 153.964306,162.379986 151.480982,159.788735 C144.102318,152.088884 131.624858,147.026475 117.465463,147.026475 C106.869467,147.026475 97.2155128,149.862071 89.9330148,154.516162 C87.1899755,156.268605 83.3930281,156.868611 79.8466374,156.124031 C77.1906059,155.566519 74.3756052,155.266747 71.4624751,155.266747 C63.4269988,155.266747 56.1464634,157.543907 50.8409425,161.234016 C48.0782773,163.155514 44.1132018,164.02804 40.3797114,163.286693 C38.7664667,162.966135 37.0655598,162.794309 35.3070839,162.794309 C27.2101132,162.794309 2.61285456,166.423447 -3.83693077e-13,171.502946 L185.752946,171.502946 Z" id="Fill-1-Copy" fill="#F3F4F6" fill-rule="nonzero" transform="translate(92.876473, 159.264711) scale(-1, 1) translate(-92.876473, -159.264711) "></path>
                    <g id="Group-72" transform="translate(103.351263, 13.185294)">
                        <path d="M13.2337197,2.77111667e-13 C12.6315664,2.77111667e-13 12.1435226,0.749395697 12.1435226,1.67439653 L12.1435226,12.7050472 C12.1435226,13.6294175 12.6315664,14.3791285 13.2337197,14.3791285 L41.3684799,14.3791285 C41.9143993,16.4157697 42.7650896,19.4940615 42.8342531,19.1740629 C42.8954125,18.8922119 43.4300442,16.3738388 43.8528239,14.3791285 L53.2276567,14.3791285 C53.8296048,14.3791285 54.3176486,13.6294175 54.3176486,12.7050472 L54.3176486,1.67439653 C54.3176486,0.749395697 53.8296048,2.77111667e-13 53.2276567,2.77111667e-13 L13.2337197,2.77111667e-13 Z" id="Fill-4" fill-opacity="0.6" fill="url(#linearGradient-1)"></path>
                        <path d="M31.8210784,16.8716512 L31.8210784,13.2115307 C31.8210784,12.7163222 31.4527841,12.3151519 30.998616,12.3151519 L0.822462452,12.3151519 C0.3682943,12.3151519 0,12.7163222 0,13.2115307 L0,19.1162839 C0,19.6112691 0.3682943,20.0124394 0.822462452,20.0124394 L30.998616,20.0124394 C31.0449346,20.0124394 31.0894086,20.0057384 31.1334727,19.9976971 L34.2614124,21.3584596 C34.3944247,21.4163121 34.5161647,21.252136 34.4354146,21.1232523 C33.8648351,20.2110142 32.5238503,18.0597497 31.8210784,16.8716512 Z" id="Fill-1" fill="#F3F4F6" fill-rule="nonzero"></path>
                    </g>
                    <g id="Group-72-Copy" transform="translate(210.521856, 17.500000) scale(-1, 1) translate(-210.521856, -17.500000) translate(166.521856, 0.000000)">
                        <path d="M20.7004869,0 C19.7238861,0 18.9323535,1.21726004 18.9323535,2.7197594 L18.9323535,20.6370898 C18.9323535,22.1385649 19.7238861,23.3563371 20.7004869,23.3563371 L66.3307781,23.3563371 C67.2161763,26.6644986 68.5958662,31.6646362 68.7080388,31.1448554 C68.8072301,30.6870386 69.6743211,26.5963894 70.3600054,23.3563371 L85.5645548,23.3563371 C86.5408228,23.3563371 87.3323554,22.1385649 87.3323554,20.6370898 L87.3323554,2.7197594 C87.3323554,1.21726004 86.5408228,0 85.5645548,0 L20.7004869,0 Z" id="Fill-4" fill="#F3F4F6" fill-rule="nonzero"></path>
                        <g id="Group-85" transform="translate(43.604473, 4.023530)" fill="#FFFFFF">
                            <polygon id="Rectangle" points="0.220318172 0 39.449731 0 39.449731 1.34117651 0.220318172 1.34117651"></polygon>
                            <polygon id="Rectangle-Copy" points="14.3026715 3.01764714 39.449731 3.01764714 39.449731 4.35882365 14.3026715 4.35882365"></polygon>
                        </g>
                        <path d="M51.7041079,27.5411538 L51.7041079,21.5780393 C51.7041079,20.7712393 51.1056892,20.1176476 50.3677394,20.1176476 L1.33636852,20.1176476 C0.598418696,20.1176476 0,20.7712393 0,21.5780393 L0,31.1981377 C0,32.0045738 0.598418696,32.6581655 1.33636852,32.6581655 L50.3677394,32.6581655 C50.4429996,32.6581655 50.5152628,32.647248 50.5868599,32.6341471 L55.6692562,34.8511185 C55.8853796,34.9453725 56.0831874,34.6778949 55.9519815,34.4679158 C55.0248821,32.9816861 52.8459987,29.4768188 51.7041079,27.5411538 Z" id="Fill-1" fill-opacity="0.6" fill="url(#linearGradient-2)"></path>
                    </g>
                    <g id="Group-80" transform="translate(67.810086, 16.873530)">
                        <g id="Group-79" transform="translate(8.117647, 30.176471)">
                            <g id="Group-76" transform="translate(0.466359, 45.580943)">
                                <path d="M0.154112751,78.8976456 C-0.0458936729,78.7652016 0.541651925,3.6048447 0.542934931,3.48850673 L1.67126768,3.50216817 C1.46541645,20.7721011 1.00690025,74.1512001 1.30926206,77.4128336 C3.73214814,77.6616157 32.2707777,77.8241149 34.2850976,77.4128336 C34.5749144,74.3610111 35.2959485,21.4978832 35.1063487,3.48850673 L36.8500278,3.6214829 C36.850783,3.70086307 36.5087908,28.8408522 35.8240511,79.0414503 C12.1774298,79.0338766 0.287450366,78.9859417 0.154112751,78.8976456 Z" id="Fill-1" fill="#A0A6B5"></path>
                                <path d="M99.5937657,78.8720021 C99.54601,28.7943179 99.522545,3.71704419 99.5233708,3.64018093 C99.5242557,3.56331767 100.073443,3.56331767 101.170933,3.64018093 C101.033699,15.0502421 100.866789,39.7324172 100.670204,77.6867062 C121.301694,77.5939256 132.288879,77.4116706 133.631759,77.1399414 C133.824971,75.1236348 134.27757,50.6237146 134.989557,3.64018093 L136.309973,3.62029064 C136.310732,3.69895909 135.945736,28.7253769 135.214986,78.699544 L99.5937657,78.8720021 Z" id="Fill-1" fill="#C4C9D3"></path>
                                <polygon id="Fill-34" fill="url(#linearGradient-3)" points="24.2850657 3.64018093 136.309972 3.64018093 136.309972 0 24.2850657 0"></polygon>
                                <polygon id="Fill-35" fill="url(#linearGradient-4)" points="0.214849322 3.64018093 99.5234151 3.64018093 99.5234151 0 0.214849322 0"></polygon>
                            </g>
                            <g id="Group-74" transform="translate(57.880314, 0.054934)">
                                <g id="Group-17">
                                    <path d="M28.3525983,32.6106332 L27.2685391,44.0684232 L19.3087477,44.0684232 L20.4016492,32.6106332 L23.4729465,32.6106332 L22.6644252,39.6512873 C22.5890414,40.307737 23.0029186,40.9077684 23.5894043,40.992145 C24.1753602,41.0765215 24.7114406,40.6126785 24.7868243,39.9567761 L25.6306742,32.6106332 L28.3525983,32.6106332 Z" id="Fill-1" fill="url(#linearGradient-5)"></path>
                                    <path d="M47.7199854,0 L49.7455224,0 C50.1217135,0 50.4131694,0.36210254 50.3677318,0.773031942 L46.358575,37.5128141 C46.3203418,37.8589714 46.053283,38.1191861 45.7364065,38.1191861 L43.6878232,38.1191861 L47.7199854,0 Z" id="Fill-3" fill="#ECEDEF" fill-rule="nonzero"></path>
                                    <path d="M27.5661765,32.6106332 L26.4821173,44.0684232 L18.522326,44.0684232 L19.6152682,32.6106332 L22.6865247,32.6106332 L21.8780441,39.6512873 C21.8026604,40.307737 22.2164968,40.9077684 22.8029825,40.992145 C23.3889791,41.0765215 23.9250595,40.6126785 24.0004433,39.9567761 L24.8442931,32.6106332 L27.5661765,32.6106332 Z" id="Fill-5" fill="#ECEDEF" fill-rule="nonzero"></path>
                                    <g id="Group-9" transform="translate(0.041414, 0.000000)" fill="url(#linearGradient-6)">
                                        <path d="M48.5159453,0.0297392659 C48.8867193,0.0297392659 49.1740812,0.391443987 49.1293284,0.801934065 L48.978646,2.18552101 L45.1847904,37.5107553 C45.14714,37.8566633 44.8838291,38.1167918 44.5714073,38.1167918 L0.617983542,38.1167918 C0.247209558,38.1167918 -0.0401120313,37.7551321 0.00460037337,37.344597 L3.78033696,2.18552101 L3.9491384,0.635730814 C3.98682918,0.289867832 4.25009969,0.0297392659 4.56252157,0.0297392659 L48.5159453,0.0297392659 Z" id="Fill-7"></path>
                                    </g>
                                    <path d="M46.6279495,1.98307905 C46.9868446,1.98307905 47.2651163,2.33455225 47.2223805,2.73392573 L43.7150307,35.5444751 C43.6790982,35.8822312 43.4231523,36.1361071 43.1198177,36.1361071 L34.1494744,36.122127 L6.69409981,36.0790474 L2.40894202,36.0723861 C2.05974366,36.0717726 1.78534279,35.7379607 1.8127516,35.3481848 L1.87710951,34.438956 L1.88062847,34.3863665 L5.34172347,2.57287036 C5.37835977,2.23616605 5.63340635,1.98307905 5.93599801,1.98307905 L46.6279495,1.98307905 Z" id="Fill-10" fill="#FFFFFF"></path>
                                    <path d="M33.5914964,45.6108181 L12.2309516,45.6108181 C12.2309516,44.5156502 13.136564,43.627739 14.253673,43.627739 L31.5687312,43.627739 C32.685884,43.627739 33.5914964,44.5156502 33.5914964,45.6108181" id="Fill-12" fill="url(#linearGradient-7)"></path>
                                </g>
                                <g id="Group-5" transform="translate(5.145609, 22.920341)">
                                    <path d="M17.7736664,0 C18.3740546,0 18.8369037,0.606445007 18.7574396,1.28885359 L18.7553655,1.30594911 L18.2102004,6.0744844 C18.1454495,6.64101508 17.7244064,7.06461235 17.2262327,7.06461235 L0.992612544,7.06461235 C0.393261415,7.06461235 -0.0693285075,6.46009988 0.00858000963,5.77858324 L0.519911367,1.30594911 L0.557050785,0.9873778 C0.622903574,0.422110699 1.04342808,0 1.54075924,0 L17.7736664,0 Z" id="Fill-1" fill="url(#linearGradient-8)"></path>
                                    <path d="M18.7573439,1.32461482 L18.7573439,1.32461482 L0.586448079,1.32461482 L0.621970403,1.01475899 C0.688429441,0.433798159 1.11308268,0 1.61517458,0 L17.7640751,0 C18.3702797,0 18.8376243,0.623255019 18.7573439,1.32461482" id="Fill-3" fill="#D1D1D1"></path>
                                </g>
                                <g id="Group-6" transform="translate(25.122679, 5.464452)">
                                    <g id="Group-3" transform="translate(0.047502, 0.000000)" fill="url(#linearGradient-10)">
                                        <path d="M16.4277563,0.0596652927 C16.9584848,0.0596652927 17.3676322,0.596448977 17.2973878,1.20047043 L17.2955544,1.21560221 L16.0972757,11.6897591 C16.0399229,12.1911476 15.6678458,12.5659554 15.2275296,12.5659554 L0.877463809,12.5659554 C0.347537479,12.5659554 -0.0613806978,12.0306849 0.00760311679,11.4273871 L1.17585891,1.21560221 L1.20868925,0.933624658 C1.2669588,0.433288842 1.63863489,0.0596652927 2.07826347,0.0596652927 L16.4277563,0.0596652927 Z" id="Fill-1"></path>
                                    </g>
                                    <path d="M17.4000367,1.10804845 L17.4000367,1.10804845 L1.21787602,1.10804845 L1.24951056,0.848852143 C1.30869591,0.362874831 1.68687247,0 2.13406985,0 L16.5154774,0 C17.0553352,0 17.4715308,0.521356662 17.4000367,1.10804845" id="Fill-4" fill="#D1D1D1"></path>
                                </g>
                            </g>
                            <g id="Group-71" transform="translate(111.221825, 13.923530)">
                                <path d="M0.686426639,-2.98427949e-13 C0.307218249,-2.98427949e-13 0,0.525007706 0,1.17254665 L0,8.89709233 C0,9.54463127 0.307218249,10.0694182 0.686426639,10.0694182 L25.8727655,10.0694182 C26.2518446,10.0694182 26.5591921,9.54463127 26.5591921,8.89709233 L26.5591921,1.17254665 C26.5591921,0.525007706 26.2518446,-2.98427949e-13 25.8727655,-2.98427949e-13 L0.686426639,-2.98427949e-13 Z" id="Fill-6" fill="#F3F4F6" fill-rule="nonzero"></path>
                                <path d="M8.84055508,7.98882737 C8.55427412,7.98882737 8.32225218,8.35562303 8.32225218,8.8079431 L8.32225218,14.203942 C8.32225218,14.6562621 8.55427412,15.0228536 8.84055508,15.0228536 L9.21855965,15.0228536 C8.85851224,15.7211329 8.46087107,16.4841169 8.21463844,16.9558279 C8.15882915,17.0627845 8.23453341,17.2142382 8.31346738,17.1536159 L11.0864913,15.0228536 L27.8619618,15.0228536 C28.1482427,15.0228536 28.3803939,14.6562621 28.3803939,14.2037379 L28.3803939,8.8079431 C28.3803939,8.35562303 28.1482427,7.98882737 27.8619618,7.98882737 L8.84055508,7.98882737 Z" id="Fill-8" fill-opacity="0.6" fill="url(#linearGradient-11)"></path>
                                <rect id="Rectangle" fill="#FFFFFF" x="10.47191" y="9.68857787" width="15.6319817" height="1"></rect>
                                <rect id="Rectangle-Copy" fill="#FFFFFF" x="10.47191" y="10.8784032" width="10.0166096" height="1"></rect>
                            </g>
                        </g>
                        <g id="Group-78" transform="translate(0.254622, 0.000000)">
                            <g id="Group-65" transform="translate(35.814420, 34.159938)" fill-rule="nonzero">
                                <path d="M28.6121519,1.61853727 C28.5551329,1.60861732 28.4989216,1.61051577 28.4451625,1.61954989 C28.3727079,1.3984095 28.2480242,1.19013842 28.0087432,1.14213785 C27.9127009,1.1228007 27.7916181,1.14502883 27.7193638,1.2163222 C27.5589594,1.37480819 27.4788833,1.5692648 27.4507445,1.76955594 C27.3955735,1.69997494 27.3246138,1.63796055 27.2256426,1.59095898 C27.1005621,1.53095754 26.8917206,1.56392332 26.819261,1.69574772 C26.3696891,2.51273669 26.4493284,3.43789784 26.1788427,4.29936771 C25.8306785,5.40796354 24.7460303,6.09684949 23.817237,6.85173088 C23.817237,6.85173088 23.7897923,6.73605176 23.742181,6.55571733 C23.6691475,6.27814437 24.3135037,3.79692027 23.3544942,4.03494332 C22.7886157,4.17510326 22.8117339,4.95595307 22.7327689,5.35822703 C22.5340435,6.37089711 21.3718743,7.31930467 21.6417615,8.35353596 C21.863556,9.20356222 22.7673787,10.859012 22.7673787,10.859012 L25.3276978,10.5304444 L26.8719163,9.35683662 C27.4257473,8.70679335 27.9127627,8.00144403 28.3354885,7.28456943 C29.2268105,5.77375471 29.5661421,3.85014039 29.1122375,2.23964914 C29.0422722,1.99158679 28.9338731,1.67448868 28.6121519,1.61853727" id="Fill-3" fill="#FFD5A7" transform="translate(25.457209, 5.997247) rotate(15.000000) translate(-25.457209, -5.997247) "></path>
                                <path d="M21.335997,7.55667995 C21.335997,7.55667995 12.5572642,35.7163374 12.5572642,35.7163374 L3.45759069,30.6746121 L17.5017644,7.57570721 L21.335997,7.55667995 Z" id="Fill-1" fill="#3B82FF" transform="translate(12.396794, 21.636509) rotate(15.000000) translate(-12.396794, -21.636509) "></path>
                            </g>
                            <g id="Group-67" transform="translate(39.577216, 31.597095) rotate(7.000000) translate(-39.577216, -31.597095) translate(25.577216, 16.597095)">
                                <path d="M24.0659775,9.55447908 C22.7960006,7.40793358 21.6443005,6.22032432 20.610877,5.9916513 C19.2198495,5.68428724 12.7809311,4.49827522 9.93751229,12.0420017 C7.09409348,19.5857282 13.3290363,18.6190609 13.9341782,19.4809622 C14.3802611,20.1163164 14.793329,21.5939828 15.6394633,22.0804596 C16.4855975,22.5669365 17.3553268,21.9247097 17.7269665,21.6615898 C17.8416372,21.5796678 17.956308,21.4958696 18.0688151,21.4100391 C18.8249096,20.8475285 19.4896336,20.2191988 19.9865956,19.4210841 C20.5599492,18.5055582 21.0356081,17.5199921 21.5049425,16.550529 C21.5473823,16.4628223 21.5898222,16.3749594 21.632262,16.2872527 C22.2014548,15.1220522 22.7238807,13.9352767 23.1124963,12.7044134 C23.3226982,12.0401256 23.9959102,10.1510718 24.0192105,10.1090164 C24.0772393,10.0252182 24.0999294,9.93881443 24.0872807,9.84980497 C24.0858383,9.84042458 24.0787372,9.74198262 24.0659775,9.55447908 Z" id="Fill-13" fill="#0F215F" fill-rule="nonzero"></path>
                                <path d="M26.0400063,18.8018836 C26.0358035,18.4941991 26.029661,18.18636 26.013173,17.8805308 C26.0089702,17.8075524 26.004929,17.7365839 25.9987865,17.6636055 C25.912144,16.511412 25.6667647,15.3375724 25.4273663,14.2484619 C25.0849991,12.6820539 24.6023228,11.1431675 23.9898444,9.64772793 C23.9712551,9.59840563 23.9526657,9.55109334 23.931975,9.50177105 C23.9258324,9.48584567 23.9175884,9.4740949 23.9053033,9.46435413 C23.9053033,9.42477261 23.8804097,9.3873557 23.8248034,9.37947031 C22.6861658,9.25314958 21.5889097,9.48399028 20.5123443,9.80157019 C19.7614965,9.47223952 18.6661802,9.64772793 17.9814458,9.87454863 C16.7047622,10.2988131 15.9063903,11.4312158 15.4382622,12.5933047 C14.8834916,13.9664435 14.7886051,15.39076 14.9433008,16.8112111 C15.1144844,18.3836491 15.5908565,19.9480471 16.0900207,21.4337459 C16.0921221,21.4356013 16.0942235,21.4396213 16.0942235,21.4396213 C16.0942235,21.4396213 15.9765449,22.122248 15.9765449,22.124258 L15.5950593,24.3298458 L15.1185255,27.0918942 L21.0767452,29.8058636 L22.6680614,21.6358281 C22.9897378,21.6016582 23.3109293,21.5650143 23.6321208,21.5263605 C24.4898169,21.4229228 25.5967718,21.2604221 25.9140837,20.3427801 C26.0647382,19.9106302 26.0482503,19.4449288 26.0421077,18.9971628 C26.0421077,18.9320697 26.0400063,18.8669767 26.0400063,18.8018836 Z" id="Fill-15" fill="#FFD5A7" fill-rule="nonzero"></path>
                                <path d="M25.3301728,14.1910266 C25.3301728,14.1910266 27.1917084,16.222148 27.1917084,16.5070432 C27.1917084,16.8366213 25.520176,17.6012884 25.520176,17.6012884 L25.3301728,14.1910266 Z" id="Fill-17" fill="#FFD5A7" fill-rule="nonzero"></path>
                                <path d="M21.5192119,10.9207735 C21.2465346,11.0309787 21.1612414,11.074136 21.1465638,11.3672971 C21.1320493,11.6603042 21.1819531,11.9787432 21.2111453,12.2719044 C21.2714865,12.8462044 21.365097,13.4164969 21.4878997,13.9829361 C21.4420729,13.9810865 21.4004864,13.9829361 21.3588998,13.9869435 C20.6804683,13.6879253 19.2578389,12.9649669 18.6956267,14.5291962 C18.1334145,16.0934254 19.6858159,16.9133148 19.9625703,17.3282412 C19.3444801,18.6656542 18.4621929,20.6992865 18.1334145,21.4505313 C17.8046362,22.2017761 16.3438158,22.3353119 15.9234565,22.1979228 C15.5030971,22.0605336 14.9995828,20.1840195 14.7644149,19.3973241 C14.5687135,18.7444162 14.3814925,18.0875009 14.2482525,17.4208752 C14.2128631,17.2359154 14.1795939,17.0491061 14.1525219,16.8622968 C13.9049596,15.1551184 14.3232713,13.6230353 15.1597317,12.1106812 C15.5010676,11.491066 15.9234565,10.8931837 16.49572,10.4409571 C17.10957,9.95312583 17.8607373,9.71514431 18.6287022,9.5321883 C20.3808821,9.11726196 22.2017205,9.07410469 23.9788523,9.36310427 C24.0100015,9.4181298 23.9808094,9.71314058 24.0100015,9.75845571 C22.6963015,10.395642 21.8660383,10.7830813 21.5192119,10.9207735 Z" id="Fill-19" fill="#0F215F" fill-rule="nonzero"></path>
                                <path d="M22.4117816,23.1411722 C21.5003148,22.1807933 21.072176,21.7058557 21.1273652,21.7163593 L22.6739185,21.5910532 L22.4117816,23.1411722 Z" id="Fill-56" fill="#F28566"></path>
                                <path d="M23.7561246,7.62659095 C23.3717212,7.46730635 22.957839,7.38643642 22.5459782,7.31216498 C22.2855541,7.26520825 19.9005242,6.8412098 19.2942178,8.43613601 C18.6879115,10.0310622 19.5654199,12.0047693 20.3060955,13.2043143 C20.4944229,13.5092262 20.886575,14.5369035 21.4412816,14.3297414 C21.923723,14.1495871 23.2237054,10.3450485 23.8703858,10.2204443 C24.5170662,10.0958402 25.1096221,9.5957047 24.9642496,8.86480626 C24.8488612,8.2850594 24.3200959,7.86014699 23.7561246,7.62659095 Z" id="Fill-62" fill="#0F215F" fill-rule="nonzero"></path>
                                <path d="M13.9085848,10.144735 C11.6177906,9.4043842 11.4500427,5.13576001 9.35510759,3.84866917 C7.24980912,2.55458618 4.44630589,2.79181642 2.97026658,4.58182624 C1.66218558,6.16701525 1.77678854,8.54972003 3.39303285,10.1038166 C5.54367867,12.1721731 8.78001773,10.7258779 10.6341206,13.3407983 C11.7800799,14.957453 14.2889287,14.0464291 14.0346684,12.5490035 C15.8519588,12.6449973 15.9408006,10.8017538 13.9085848,10.144735" id="Fill-1" fill="#0F215F" transform="translate(8.745494, 8.612818) rotate(-34.000000) translate(-8.745494, -8.612818) "></path>
                                <path d="M20.3220106,14.486673 C19.8286567,15.4572645 19.3717645,17.2804026 18.5101481,17.9102669 C17.1835058,18.8802755 15.4468104,18.3550485 14.0197583,17.9650631 C13.0428672,17.6977861 11.459325,18.5504884 13.1960204,19.0249998 C14.9327158,19.4995112 17.2320278,20.4670323 18.9297373,19.58359 C20.6706399,18.6777046 21.3263882,15.3476722 23.0148421,14.5044526 C24.4090787,13.8081334 25.8082948,13.8214776 26.2419767,12.0794312 C26.6756586,10.3373849 25.9074597,9.13649102 24.4944314,8.10294223 C23.081403,7.06939345 20.7247714,13.694169 20.3220106,14.486673 Z" id="Fill-4" fill="#0F215F"></path>
                            </g>
                            <g id="Group-68" transform="translate(22.005446, 41.731471)" fill-rule="nonzero">
                                <path d="M8.0482388,7.53894808 C10.1077663,3.71712408 13.1444309,1.20414138 17.1582325,-8.52651283e-14 C26.6101926,3.61596291 32.2341076,7.86425979 34.0299776,12.7448907 C35.8258475,17.6255215 33.5884675,21.5892385 27.3178377,24.6360417 L21.6121171,53.8632042 L0,53.8632042 C3.30596499,26.8021908 5.98871126,11.3607721 8.0482388,7.53894808 Z" id="Fill-21" fill="#3B82FF"></path>
                                <path d="M32.5789068,20.7725495 C32.4407228,20.7725495 26.0787058,15.0209889 26.2168898,15.0209889 C26.3090124,15.0209889 28.913375,16.328281 34.0299776,18.9428652 L32.5789068,20.7725495 Z" id="Fill-50" fill-opacity="0.25" fill="#000000"></path>
                            </g>
                            <g id="Group-64" transform="translate(46.673378, 38.035822)" fill-rule="nonzero">
                                <path d="M45.2112456,0.955197938 C45.2646806,0.688989131 45.2657493,0.407776606 45.0821466,0.231161424 C45.0086199,0.160215276 44.8912766,0.118847885 44.790605,0.153785112 C44.5670328,0.23180444 44.3945445,0.389772146 44.2643767,0.581176707 C44.2530485,0.480008787 44.2235524,0.378412189 44.1622089,0.277244269 C44.0846213,0.148855319 43.884988,0.0721220234 43.7520416,0.169431845 C42.9289283,0.772152591 42.5099976,1.76818506 41.8194031,2.51236942 C40.9306716,3.47003525 40.0162798,3.34259462 38.4117439,3.88756726 C36.8072081,4.43253989 34.3565745,6.25058019 35.3811223,7.46016661 C36.0641542,8.26655756 36.8666772,8.60742772 37.7886914,8.48277709 L39.7555282,8.09439516 C40.5818477,7.71887356 41.3790984,7.25054325 42.1261203,6.73655877 C43.7011714,5.65307607 45.0124673,3.85070098 45.4660239,1.94930136 C45.5359169,1.6563002 45.6085885,1.27177637 45.3574439,1.04307685 C45.3129859,1.00256682 45.2629707,0.97470277 45.2112456,0.955197938 Z" id="Fill-45" fill="#FFD5A7"></path>
                                <path d="M18.4173443,18.4595351 C22.1872565,23.0005902 22.3926014,25.7275618 19.0333788,26.64045 C15.6741563,27.5533382 9.32969665,24.3201732 0,16.9409551 C2.3167562,12.3469293 3.4751343,10.0499164 3.4751343,10.0499164 L18.4173443,18.4595351 Z" id="Fill-23" fill="#3B82FF"></path>
                                <path d="M38.1611324,8.85892384 C34.4819096,12.8289827 22.4434569,25.1536041 19.64686,26.333723 C17.7824621,27.120469 16.8181155,24.7589464 16.7538202,19.2491553 L35.2351297,5.70958327 C37.2072714,7.78607172 38.1826056,8.83585191 38.1611324,8.85892384 Z" id="Fill-43" fill="#3B82FF"></path>
                            </g>
                            <g id="Group-60" transform="translate(0.027384, 0.000000)" fill="#A0A6B5">
                                <path d="M18.3142857,2.87827835 C18.2981989,2.88578768 18.286926,2.89632491 18.2753713,2.90658488 C18.2339956,2.90486877 18.190026,2.92677992 18.1759234,2.97892378 C17.7520171,4.56291184 17.4949512,6.18239698 17.082445,7.76792405 C16.8903313,8.50573445 16.1407931,8.31648921 15.6615988,8.76081189 C15.3691007,9.03280614 15.234532,9.43197886 15.1400089,9.80367318 C14.7546872,11.319193 14.55751,12.9002717 14.2732907,14.4349985 C13.9583534,16.1349963 13.6425632,17.8347242 13.3301922,19.53497 C13.3022321,19.6858807 13.517786,19.7513686 13.5881204,19.6131155 C14.3963552,18.0261619 15.1290897,16.4053479 15.7720648,14.7494521 C16.3329077,13.3041471 16.7035223,11.5820879 18.1784818,10.7516972 C18.7686955,10.4194257 19.1194262,10.1699972 19.3522746,9.52632086 C19.6592008,8.67665114 19.9181264,7.80793573 20.1977536,6.94990902 C20.7980356,5.1097417 21.3977501,3.26930077 21.998032,1.42913345 C22.0331346,1.32138666 21.8954372,1.21894694 21.7966248,1.26459403 C20.6350142,1.8005333 19.4742272,2.33898993 18.3142857,2.87827835 Z" id="Fill-11" transform="translate(17.665665, 10.471203) scale(-1, 1) rotate(25.000000) translate(-17.665665, -10.471203) "></path>
                                <path d="M18.0805292,19.9285193 C18.0669552,19.9177513 18.0521556,19.9124535 18.0376474,19.9071525 C18.0208811,19.8688472 17.9818694,19.8399714 17.9272536,19.8523337 C16.2752786,20.2322502 14.6631193,20.7794666 13.0148117,21.1702574 C12.2480591,21.351681 12.0962702,20.5859001 11.4755035,20.3685504 C11.0961957,20.2356294 10.6674435,20.3065808 10.2821432,20.4000417 C8.71055737,20.7816792 7.16035192,21.3644177 5.61504608,21.8462946 C3.90281762,22.3799388 2.19117823,22.9130023 0.479801697,23.4486478 C0.32807142,23.4965182 0.361423205,23.7216158 0.520234924,23.7184733 C2.34233692,23.6830981 4.16361565,23.5638678 5.97694525,23.3464989 C7.56039767,23.156874 9.31735114,22.6623835 10.7294039,23.5909665 C11.294861,23.9628524 11.6787229,24.1583353 12.3766965,24.0583553 C13.2973106,23.9264009 14.2144284,23.7416384 15.1312801,23.581004 C17.0975056,23.2364835 19.063728,22.8922502 21.0296621,22.5477329 C21.1449618,22.5275384 21.1797933,22.3542667 21.0942958,22.287405 C20.0908903,21.4994696 19.0863004,20.7132701 18.0805292,19.9285193 Z" id="Fill-13" transform="translate(10.761879, 21.966887) scale(-1, 1) rotate(20.000000) translate(-10.761879, -21.966887) "></path>
                            </g>
                            <g id="Group-69" transform="translate(16.788140, 94.127340)">
                                <g id="Group-66" transform="translate(0.311861, 0.090309)">
                                    <g id="Group-77" transform="translate(0.158905, 0.000000)">
                                        <path d="M1.80806717,0 C-1.79644231,8.3377856 0.59619452,11.7665627 10.6934917,15.8133622 C20.7907888,19.8601616 56.3237996,16.1833029 56.3237996,16.1833029 C56.3237996,16.1833029 55.625062,16.6989025 54.5986586,17.7007117 C53.2023139,19.0635979 52.0689483,21.1497109 51.1985618,23.9590507 L44.3893358,51.8732655 L49.4912998,51.0524494 C49.4912998,51.0524494 60.8239617,28.7610419 62.6183943,23.9203092 C64.4125631,19.0795766 67.2160014,14.0525862 63.9640868,10.2357242 C61.795968,7.69129547 49.4531767,4.50154416 26.9357129,0.666470296 L1.80806717,0 Z" id="Fill-11" fill="#0F215F" fill-rule="nonzero"></path>
                                        <path d="M46.2381779,57.2483889 C42.3213822,56.0586318 43.3936263,53.5303413 43.3335274,51.6631693 C43.3335274,51.6631693 46.3778811,51.3898882 46.9884506,51.6856961 C47.5990201,51.981504 57.8356276,54.0312675 57.2494396,55.8576012 C56.6632516,57.6839348 50.1549735,58.438146 46.2381779,57.2483889 Z" id="Fill-29" fill="#0F215F" fill-rule="nonzero" transform="translate(50.258198, 54.685304) rotate(37.000000) translate(-50.258198, -54.685304) "></path>
                                        <path d="M54.0012726,18.3663752 C53.9081076,18.3663752 56.2306346,16.1833029 56.3237996,16.1833029 C56.3859097,16.1833029 57.4097921,16.0443659 59.3954468,15.766492 L54.0012726,18.3663752 Z" id="Fill-50-Copy-2" fill="#000000" opacity="0.65"></path>
                                    </g>
                                    <g id="Group-82" transform="translate(43.253241, 36.775974) rotate(-17.000000) translate(-43.253241, -36.775974) translate(31.253241, 13.275974)">
                                        <path d="M16.91126,1.27721172 C11.5873374,4.77280521 8.03075669,9.32948391 6.24151771,14.9472478 C4.45227873,20.5650117 2.37177283,28.718531 2.48689958e-13,39.4078057 L4.41170775,38.8914953 C4.41170775,38.8914953 19.3016734,10.4192529 22.5965948,3.76941692 C24.5664073,-0.206301841 22.6712957,-1.03703691 16.91126,1.27721172 Z" id="Fill-37" fill="#0F215F" fill-rule="nonzero"></path>
                                        <path d="M4.5295039,38.6773584 C5.08845289,39.8117391 9.34394008,44.9151244 6.90130406,46.4075745 C5.27288004,47.4025413 2.97244536,45.069285 1.84741111e-13,39.4078057 C3.1554552,38.6681081 4.66528983,38.4246257 4.5295039,38.6773584 Z" id="Fill-39" fill="#0F215F" fill-rule="nonzero"></path>
                                        <path d="M11.5600504,5.81113462 C11.4853307,5.81113462 13.5777091,3.7468199 13.6524288,3.7468199 C13.702242,3.7468199 15.9648101,4.31326339 20.4401333,5.44615036 L11.5600504,5.81113462 Z" id="Fill-50-Copy-2" fill="#000000" opacity="0.65"></path>
                                    </g>
                                </g>
                            </g>
                            <g id="Group-12" transform="translate(10.158642, 89.318904)">
                                <path d="M20.8681113,28.2155792 C21.2325392,28.2648831 21.505184,28.830675 21.4772941,29.4779385 L19.5906655,63.3941656 L27.2361728,63.3947617 C27.6153242,63.3947617 27.9230336,63.8451914 27.9230336,64.4007727 C27.9230336,64.9560969 27.6153242,65.4799607 27.2361728,65.4799607 L10.3525263,65.4543026 C9.97337493,65.4543026 9.66566549,64.9560969 9.66566549,64.4007727 C9.66566549,63.8451914 9.97337493,63.3947617 10.3525263,63.3947617 L18.2616655,63.3941656 L20.1581868,29.2990616 C20.1860767,28.6508962 20.5053737,28.166576 20.8681113,28.2155792 Z" id="Combined-Shape" fill="#757E94"></path>
                                <g id="Group-7" fill="url(#linearGradient-13)">
                                    <path d="M32.9101534,22.1418562 C32.9101534,22.1418562 27.4985192,3.31604501 25.9954621,1.83500159 C24.4920557,0.354119102 15.6732128,-0.199642759 8.40756366,0.125758718 C3.69871868,0.336738608 0.772089859,1.00797974 0.0755895835,1.83500159 C-0.620910692,2.66218438 3.6471843,24.6330604 6.65364774,26.942574 C9.66011119,29.2520877 19.4813416,29.8044012 24.8929758,29.5276007 C30.30461,29.2506393 39.67391,25.7349516 40.3007078,25.3694784 C40.9275057,25.0038443 42.3129944,23.6190373 39.0645814,22.4188176 C35.8165178,21.2187588 32.9101534,22.1418562 32.9101534,22.1418562" id="Fill-5"></path>
                                </g>
                                <path d="M25.1935784,2.47863713 C25.1614148,2.47527177 0.610927927,2.47578952 0.578589465,2.47889601 C0.470736322,2.48873324 0.471435532,2.03787129 0.578589465,2.02738688 C0.61110273,2.02428038 25.217876,2.18895669 25.2500396,2.19232206 C25.3566692,2.20371253 25.3173386,2.48019038 25.2218964,2.48019038 C25.2126319,2.48019038 25.2031926,2.47980207 25.1935784,2.47863713 Z" id="Fill-10" fill="#F7F7F7"></path>
                            </g>
                        </g>
                        <g id="Group-70" transform="translate(117.664709, 76.505885)">
                            <polygon id="Fill-51" fill="url(#linearGradient-14)" points="22.7131887 77.9510735 48.2040171 77.9510735 53.7048352 45.8738618 17.7122282 45.8738618"></polygon>
                            <path d="M0.230104791,35.6988323 C0.230104791,35.6988323 2.73987959,24.897822 3.69719288,23.7339257 C4.65450618,22.5700295 14.2116948,17.4182708 16.6830729,17.4182708 C19.154451,17.4182708 24.6734826,19.473234 24.5664275,20.3540739 C24.4593724,21.2345838 22.1659855,23.1255854 22.1659855,23.1255854 L0.230104791,35.6988323 Z" id="Fill-1" fill="url(#linearGradient-15)" fill-rule="nonzero"></path>
                            <path d="M33.5094316,45.8738618 C33.0401787,36.5265808 30.6557956,29.662619 26.6142399,26.0241066 C23.3705456,23.1049959 20.1810717,23.2509185 20.1488681,23.2532243 L20.1117353,22.5954197 C20.2510653,22.5875142 23.6078009,22.4330273 27.0532608,25.5339648 C31.2877097,29.3460691 33.6806367,36.1780794 34.1659914,45.8405928 L33.5094316,45.8738618 Z" id="Fill-3" fill="url(#linearGradient-16)" fill-rule="nonzero"></path>
                            <path d="M22.1396038,23.2816943 C23.9322658,23.6140169 27.1733385,25.9520045 27.3076325,26.8199531 C27.4415991,27.6879016 22.4081919,33.0953124 20.9316123,33.6960996 C19.4553602,34.2968869 13.012193,33.6960996 9.65647905,33.6960996 C6.30043758,33.6960996 0.0587114244,35.6988323 0.0587114244,35.6988323 C0.0587114244,35.6988323 2.27358088,30.2246312 6.36758461,27.2203693 C10.4615884,24.2164332 18.1798941,22.5473264 22.1396038,23.2816943" id="Fill-5" fill="url(#linearGradient-17)" fill-rule="nonzero"></path>
                            <path d="M39.0879186,45.8738618 C39.0820881,45.8209724 38.5430906,40.514618 39.7694395,34.1448903 C40.9050916,28.2472255 43.8271447,20.1991616 51.2989325,15.3487733 L51.6481148,15.9019771 C37.7009071,24.9562543 39.7101627,45.5966029 39.7318651,45.8038901 L39.0879186,45.8738618 Z" id="Fill-7" fill="url(#linearGradient-18)" fill-rule="nonzero"></path>
                            <path d="M36.6109528,45.7014037 L35.9767652,45.6063485 C39.4886712,21.2771095 30.486668,16.4985426 30.3953373,16.4531382 L30.6760591,15.8661477 C30.7757217,15.9154719 33.1384631,17.1293043 35.0519216,21.4548072 C38.2045935,28.5813362 37.6399454,38.5738947 36.6109528,45.7014037" id="Fill-21" fill="url(#linearGradient-19)" fill-rule="nonzero"></path>
                            <path d="M35.499927,45.7014037 L34.8515648,45.5982447 C39.5673734,16.1461853 43.9447204,0.158177139 43.988054,0 L44.6209867,0.173896607 C44.5773249,0.331746257 40.2091698,16.2899529 35.499927,45.7014037" id="Fill-23" fill="url(#linearGradient-20)" fill-rule="nonzero"></path>
                            <path d="M35.231337,45.8738618 C34.7028095,40.9645128 33.5018776,37.7374728 31.7590419,36.5414256 C30.9884357,36.0126812 30.1039678,35.8773906 29.1310857,36.1388217 C27.7614818,36.506786 26.85385,37.3338886 25.8033201,38.2917067 C24.722775,39.2759948 23.4980267,40.3919787 21.5447587,41.1413056 L21.3114889,40.5311908 C23.1499163,39.8256536 24.2754841,38.8001902 25.3638592,37.8080592 C26.4313543,36.8355356 27.4394715,35.9166053 28.9620874,35.5074656 C30.1268054,35.1944019 31.1926692,35.3604107 32.1277061,36.002224 C34.060094,37.3280064 35.3223612,40.6256328 35.879925,45.8036022 L35.231337,45.8738618 Z" id="Fill-29" fill="url(#linearGradient-21)" fill-rule="nonzero"></path>
                            <path d="M38.0659788,45.7014037 L37.4224653,45.6453585 C37.6279244,43.2487755 38.9388569,40.2800103 41.4050122,39.049949 C42.9656614,38.2708559 45.6534283,37.8730003 49.5913944,40.3963366 L49.2447629,40.9466872 C46.2866041,39.0506007 43.7458245,38.6094078 41.6915566,39.6338615 C39.4505663,40.7518325 38.2559315,43.4869675 38.0659788,45.7014037" id="Fill-31" fill="url(#linearGradient-22)" fill-rule="nonzero"></path>
                            <path d="M36.8544757,45.3564874 L36.2227118,45.1918438 C41.2543065,25.7661832 51.8076352,24.4545984 57.6468826,25.399581 L57.5427851,26.0457174 C51.9202171,25.135431 41.7561933,26.4332682 36.8544757,45.3564874" id="Fill-33" fill="url(#linearGradient-23)" fill-rule="nonzero"></path>
                            <path d="M24.0537828,39.4042193 C24.0537828,39.4042193 22.6900843,36.0787536 21.12222,35.7118919 C19.9244468,35.4313119 12.8048909,39.7506632 11.9551719,41.0827595 C10.918787,42.70795 9.67305107,52.2898229 10.077818,60.1878864 L24.0537828,39.4042193 Z" id="Fill-45" fill="url(#linearGradient-24)" fill-rule="nonzero"></path>
                            <path d="M24.0028413,39.2368565 C24.0028413,39.2368565 20.3141697,40.7605724 18.4698338,43.4619743 C16.625498,46.1630471 9.99952669,60.0154283 9.99952669,60.0154283 C9.99952669,60.0154283 14.0979786,57.1062768 18.674724,55.9289198 C23.2514693,54.7515629 26.8034393,54.1974545 27.8964031,53.5738768 C28.9890422,52.9506283 33.4975991,42.4228976 32.4731485,41.1760714 C31.4483731,39.9295743 26.8034393,38.8213575 24.0028413,39.2368565" id="Fill-48" fill="url(#linearGradient-25)" fill-rule="nonzero"></path>
                            <path d="M48.9058209,39.8810437 C48.9058209,39.8810437 50.815143,37.4529751 51.7699661,37.6025052 C52.7247893,37.7520353 56.3398243,40.0184938 57.2946475,44.1393869 C58.2494706,48.26028 55.1123335,57.6010145 55.1123335,57.6010145 L48.9058209,39.8810437 Z" id="Fill-51" fill="url(#linearGradient-26)" fill-rule="nonzero"></path>
                            <path d="M48.8976764,39.8752674 C48.8976764,39.8752674 46.3852082,37.4019909 45.0613618,37.6080701 C43.7375154,37.8141492 41.1575962,42.967108 41.021726,45.0282262 C41.021726,45.0282262 46.9283661,48.2572351 50.0514431,51.0055016 C53.1745201,53.753768 55.075734,57.6010145 55.075734,57.6010145 C55.075734,57.6010145 55.1435077,51.5871608 53.03865,46.6588969 C50.934115,41.7303065 48.8976764,39.8752674 48.8976764,39.8752674" id="Fill-53" fill="#FFAB00"></path>
                        </g>
                    </g>
                </g>
            </g>
        </g>
    </g>
</svg>