<?xml version="1.0" encoding="UTF-8"?>
<svg width="300px" height="200px" viewBox="0 0 300 200" version="1.1" xmlns="http://www.w3.org/2000/svg" xmlns:xlink="http://www.w3.org/1999/xlink">
    <!-- Generator: Sketch 59 (86127) - https://sketch.com -->
    <title>feature-search</title>
    <desc>Created with Sketch.</desc>
    <defs>
        <linearGradient x1="27.3257179%" y1="109.188466%" x2="60.9089353%" y2="-72.6857918%" id="linearGradient-1">
            <stop stop-color="#CED3DB" offset="0%"></stop>
            <stop stop-color="#E1E5EA" offset="100%"></stop>
        </linearGradient>
        <linearGradient x1="26.5193477%" y1="46.2396934%" x2="48.9614487%" y2="89.0796866%" id="linearGradient-2">
            <stop stop-color="#E8EAF0" offset="0%"></stop>
            <stop stop-color="#C9CED7" offset="100%"></stop>
        </linearGradient>
        <linearGradient x1="65.9590295%" y1="50%" x2="93.7896705%" y2="69.1451123%" id="linearGradient-3">
            <stop stop-color="#E8EAF0" offset="0%"></stop>
            <stop stop-color="#C9CED7" offset="100%"></stop>
        </linearGradient>
        <polygon id="path-4" points="0.0704732148 0.0524815302 18.9172509 0.0524815302 18.9172509 20.7221365 0.0704732148 20.7221365"></polygon>
        <linearGradient x1="28.5345412%" y1="89.8259051%" x2="38.2464843%" y2="65.4087616%" id="linearGradient-6">
            <stop stop-color="#CED3DB" offset="0%"></stop>
            <stop stop-color="#E1E5EA" offset="100%"></stop>
        </linearGradient>
        <polygon id="path-7" points="0.0829614266 0.0869877187 26.3793006 0.0869877187 26.3793006 26.4000693 0.0829614266 26.4000693"></polygon>
        <linearGradient x1="57.0629942%" y1="60.3964005%" x2="60.182154%" y2="104.046619%" id="linearGradient-9">
            <stop stop-color="#D9DBE2" offset="0%"></stop>
            <stop stop-color="#B3BAC5" offset="100%"></stop>
        </linearGradient>
        <linearGradient x1="55.5220722%" y1="10.3476693%" x2="57.0629942%" y2="100%" id="linearGradient-10">
            <stop stop-color="#D9DBE2" offset="0%"></stop>
            <stop stop-color="#B3BAC5" offset="100%"></stop>
        </linearGradient>
        <linearGradient x1="26.5193477%" y1="47.224921%" x2="48.9614487%" y2="78.8405254%" id="linearGradient-11">
            <stop stop-color="#E8EAF0" offset="0%"></stop>
            <stop stop-color="#C9CED7" offset="100%"></stop>
        </linearGradient>
        <polygon id="path-12" points="0 0 15.7621951 0 15.7621951 9.3902439 0 9.3902439"></polygon>
    </defs>
    <g id="中文版" stroke="none" strokeWidth="1" fill="none" fill-rule="evenodd">
        <g id="编组-39" transform="translate(-1045.000000, -284.000000)">
            <g id="feature-search" transform="translate(1045.000000, 284.000000)">
                <rect id="矩形" fill-opacity="0.01" fill="#FFFFFF" x="0" y="0" width="300" height="200"></rect>
                <g id="Group-87" transform="translate(42.000000, 42.000000)">
                    <g id="Group-42" transform="translate(62.042683, 0.000000)">
                        <path d="M13.9675989,25.1996531 C13.9675989,25.1996531 14.9106964,30.6380585 17.588226,34.4817029 C20.2657557,38.3253473 27.2305848,45.0557794 27.2305848,45.0557794 C27.2305848,45.0557794 21.7508632,51.8294593 19.8375677,55.3379336 C17.9242722,58.8464079 14.8022944,65.6363057 14.8022944,65.6363057 C14.8022944,65.6363057 9.76160094,59.8843541 5.17077585,53.1809517 C0.585370851,46.4775494 4.40536496e-13,44.6449257 4.40536496e-13,44.6449257 C4.40536496e-13,44.6449257 2.20056079,38.0928906 6.66130348,32.4544643 C11.1274663,26.821444 13.9675989,25.1996531 13.9675989,25.1996531 Z" id="Path" fill="url(#linearGradient-1)"></path>
                        <path d="M146.692137,54.2085561 C146.692137,54.2085561 141.554643,59.4363234 136.314723,62.2599632 C131.074803,65.083603 125.306578,66.3367612 125.624639,66.8638406 C125.937309,67.3855417 132.228448,85.2685936 132.228448,85.2685936 C132.228448,85.2685936 140.508815,82.8321958 145.015578,80.1430151 C153.614006,75.0174366 156.649063,69.5799132 156.649063,69.5799132 L146.692137,54.2085561 Z" id="Path" fill="#F3F4F6" fill-rule="nonzero"></path>
                        <path d="M44.7987039,86.3684673 C44.7987039,86.3684673 47.6413406,94.8050059 52.0650247,100.468922 C56.4887087,106.132839 62.6450475,111.640324 62.6450475,111.640324 L82.8629622,106.445703 C82.8629622,106.445703 74.1780305,96.1805284 71.0159356,91.0074847 C67.8592553,85.8344409 65.3306623,79.7012284 65.3306623,79.7012284 L44.7987039,86.3684673 Z" id="Path" fill="url(#linearGradient-2)"></path>
                        <path d="M36.6002483,3.95241352 C36.6002483,3.95241352 41.0275458,7.28876081 43.2384851,11.4415063 C45.4494244,15.5942518 48.294383,24.9066339 48.294383,24.9066339 C48.294383,24.9066339 56.8292589,23.1051152 60.8338768,23.0017047 C64.8384948,22.8982943 72.3220907,23.2139683 72.3220907,23.2139683 C72.3220907,23.2139683 69.4771321,16.0677627 65.5754745,8.89978659 C61.679236,1.73181043 60.3082368,0.365704121 60.3082368,0.365704121 C60.3082368,0.365704121 53.4586603,-0.668400259 46.3977439,0.741247291 C39.3368276,2.15089484 36.6002483,3.95241352 36.6002483,3.95241352 Z" id="Path" fill="url(#linearGradient-3)"></path>
                        <g id="Group-2" transform="translate(39.727670, 89.028177) rotate(44.000000) translate(-39.727670, -89.028177) translate(29.727670, 78.028177)">
                            <path d="M3.47012987,17.811891 C3.67634302,16.4999327 3.88606813,15.1886932 4.10083214,13.8780928 C2.85614758,13.4512111 1.61108128,13.0253678 0.368763474,12.5910572 C1.41372438,14.324066 2.45265387,16.0610688 3.47012987,17.811891 Z" id="Fill-28" fill="#0E708C"></path>
                            <g id="Group-32" transform="translate(0.062605, 0.095884)">
                                <mask id="mask-5" fill="white">
                                    <use xlink:href="#path-4"></use>
                                </mask>
                                <g id="Clip-31"></g>
                                <path d="M2.61077607,0.0524815302 C1.84471063,3.71284859 0.900985798,7.46843328 0.135607478,11.0760792 C-0.162603765,12.4812582 0.604301494,12.9869021 1.59788089,13.4719369 C1.63032835,13.4876734 1.66323389,13.4777682 1.70927111,13.4843983 C2.4653351,13.5927163 3.25010555,13.6779489 4.0072384,13.7868261 C3.81026323,14.5391412 3.44845497,15.4735042 3.29110387,16.1907518 C3.0123611,17.4618113 3.51701454,18.269963 4.57190055,18.7871097 C4.66970101,18.8349582 4.73619922,18.8392717 4.86904294,18.8599608 C8.4981959,19.4243969 12.1294102,20.1321387 15.7626859,20.7221365 C16.8148998,14.541298 17.8871166,8.36692986 18.9172662,2.18145831 C13.4714372,1.53506479 8.05370387,0.755430489 2.61077607,0.0524815302 Z" id="Fill-30" fill="#00C7FF" mask="url(#mask-5)"></path>
                            </g>
                            <path d="M4.03006614,16.8560562 C7.52286342,17.4182556 11.039481,18.1636211 14.5238037,18.8735197 C15.3343031,13.9349039 16.1241125,8.99301292 16.9052946,4.04920484 C12.6068078,3.43484343 8.31626108,2.76983774 4.03205116,2.05466705 C3.24903669,5.767276 2.35142543,9.45160723 1.55489755,13.1605417 C1.52061776,13.3199833 1.51985429,13.3707074 1.49885888,13.5264745 C1.55001134,13.5359004 1.61406645,13.5555511 1.66124887,13.5640983 C1.70835495,13.5726455 1.72286087,13.5760804 1.76943252,13.5822312 C2.53397102,13.6835197 3.30622057,13.7798557 4.07335487,13.8792271 C3.82698322,14.6805889 3.57526727,15.5063143 3.33782821,16.3003271 C3.29660085,16.4381211 3.29369967,16.4992297 3.26163394,16.6277575 C3.57351129,16.7376732 3.67627431,16.7991812 4.03006614,16.8560562 Z" id="Fill-33" fill="#001D26"></path>
                            <path d="M6.66269271,9.13692574 C7.4312776,9.21297204 8.04831377,9.09586713 8.19367839,8.24777519 C8.33911936,7.39968325 7.72414456,7.15876347 7.00060438,7.01090454 C6.8515751,6.98047005 6.45922805,6.9247933 6.27698785,6.8914831 C6.13796003,7.6000237 6.00847557,8.30824478 5.88677851,9.0199806 C6.08741833,9.04282644 6.49503478,9.12039046 6.66269271,9.13692574 M5.15270245,5.63424291 C5.762562,5.75190698 6.72109814,5.86613619 7.27094898,5.98635644 C8.75551571,6.31075141 9.7188617,6.74881642 9.44615035,8.47192005 C9.18290601,10.1355127 7.99998614,10.2937561 6.57771854,10.1653081 C6.356236,10.145338 5.94174833,10.0683331 5.70163712,10.0389371 C5.55192073,10.8125004 5.42274166,11.5903774 5.28508808,12.366417 C4.83945085,12.3086634 4.39465344,12.2516287 3.94817639,12.1920378 C4.34205038,10.0039494 4.72538849,7.81777812 5.15270245,5.63424291" id="Fill-35" fill="#00C7FF"></path>
                            <path d="M9.36324518,12.4210793 C9.59579803,12.1896653 9.84415471,11.9610471 10.0964051,11.7367425 C10.3878978,12.0887762 10.9398863,12.4615788 11.3208577,12.5390629 C11.7309172,12.6223783 12.0938707,12.5999319 12.1338002,12.1701745 C12.1817461,11.6550247 11.6122741,11.5066066 11.2059555,11.2029806 C10.7187092,10.8388051 9.93416778,10.4053732 10.1283945,9.52021665 C10.3393411,8.55917359 11.2529089,8.21552741 12.1948777,8.391025 C12.8080202,8.50525421 13.3502364,8.84858087 13.8105322,9.29663095 C13.572406,9.52476984 13.3396241,9.75258921 13.0909621,9.97401813 C12.8503164,9.7176814 12.3942197,9.41325657 12.0979171,9.36381051 C11.7450414,9.30477877 11.3876613,9.31172838 11.3640701,9.70713717 C11.3337603,10.2138995 11.8666621,10.2932209 12.2796992,10.6085094 C12.7985532,11.0045573 13.6180615,11.3700907 13.3792482,12.3924821 C13.1540247,13.3559215 12.2025124,13.7879955 11.122661,13.5182389 C10.5678476,13.3796461 9.7763586,12.9450159 9.36324518,12.4210793" id="Fill-37" fill="#00C7FF"></path>
                        </g>
                        <path d="M82.8613034,30.4739991 C82.8613034,30.4739991 77.7238098,35.7017664 72.4838897,38.5254062 C67.2439696,41.349046 61.4757448,42.6022042 61.7938058,43.1292836 C62.106476,43.6509847 68.3976146,61.5340366 68.3976146,61.5340366 C68.3976146,61.5340366 76.6779821,59.0976389 81.1847446,56.4084581 C89.7831732,51.2828796 92.8182298,45.8453562 92.8182298,45.8453562 L82.8613034,30.4739991 Z" id="Path" fill="url(#linearGradient-6)"></path>
                        <g id="Group-Copy" transform="translate(96.918158, 49.834635) rotate(-50.000000) translate(-96.918158, -49.834635) translate(82.918158, 35.834635)">
                            <g id="Group-21" transform="translate(0.076103, 0.014047)">
                                <mask id="mask-8" fill="white">
                                    <use xlink:href="#path-7"></use>
                                </mask>
                                <g id="Clip-20"></g>
                                <path d="M19.9712208,26.4001101 C12.1182714,23.6968041 7.17867349,19.7353667 0.0829614266,16.0209075 C3.32411376,9.55849676 3.27842902,6.88067351 4.93026587,0.0869877187 C12.3767751,1.59107815 19.1506408,3.21351021 26.3793006,5.58187164 C24.1162122,12.6175411 22.8569561,19.5235546 19.9712208,26.4001101" id="Fill-19" fill="#EE9F20" mask="url(#mask-8)"></path>
                            </g>
                            <path d="M18.8038631,23.7468437 C12.4783831,21.5169797 8.67508679,18.3930162 3.0947997,15.0724524 C5.63960216,10.0584843 5.39752142,7.95938233 6.66223027,2.72046691 C12.5607068,3.94131922 17.963305,5.1150281 23.7059981,7.00970635 C21.9388902,12.5791338 21.0915058,18.3356109 18.8038631,23.7468437" id="Fill-22" fill="#D2DAE1"></path>
                            <path d="M18.8038631,23.7468437 C12.4783831,21.5169797 8.67508679,18.3930162 3.0947997,15.0724524 C5.63960216,10.0584843 5.39752142,7.95938233 6.66223027,2.72046691 C12.5607068,3.94131922 17.963305,5.1150281 23.7059981,7.00970635 C21.9388902,12.5791338 21.0915058,18.3356109 18.8038631,23.7468437" id="Fill-22" fill="#261300"></path>
                            <path d="M12.8937213,12.3284622 C12.8858568,12.0935355 12.8719904,11.7564038 12.8571927,11.5404078 C12.800796,10.713561 12.7419158,9.9465062 12.6705144,9.13631427 C12.6576829,9.13434879 12.6438165,9.12990059 12.6311919,9.12638342 C12.314439,9.80178474 11.9900285,10.4320834 11.5990802,11.0803818 C11.4965313,11.2502408 11.3627314,11.4974776 11.2402108,11.6697158 C11.7802741,11.9159181 12.3454831,12.105225 12.8937213,12.3284622 M12.9048971,13.5044405 C12.1515611,13.179412 11.430511,12.7896261 10.6865917,12.4452532 C10.3756336,12.8586248 10.0282505,13.2684794 9.66989853,13.6416104 C9.23828254,13.3333402 8.78214174,13.0593108 8.33500372,12.7744195 C9.93335917,11.4057206 10.9583307,9.70289001 11.9763691,7.88533736 C12.5674481,8.01961075 13.1649429,8.13143627 13.7503305,8.28867475 C13.9929916,10.9422809 14.3239213,13.5375433 14.2550035,16.2112181 C13.7604716,15.9932566 13.2724588,15.7367096 12.7972777,15.4792316 C12.8467412,14.8213127 12.8937213,14.1643249 12.9048971,13.5044405" id="Fill-24" fill="#EE9F20"></path>
                            <path d="M16.1988953,11.1149591 C16.6465065,11.2769594 17.0972129,11.4299024 17.544824,11.5921085 C17.1684033,13.4952509 16.7571362,15.3808965 16.1779276,17.2310338 C15.7146406,17.0406269 15.2592414,16.8358109 14.8037424,16.626775 C15.4024211,14.8243938 15.8205776,12.9778588 16.1988953,11.1149591 M16.4396249,9.35477624 C16.5462608,8.86496742 16.9654157,8.66107768 17.427205,8.81381487 C17.8889944,8.96665498 18.1377116,9.40562002 18.0228883,9.89244408 C17.908065,10.3791652 17.512973,10.5778059 17.0648627,10.4253775 C16.616952,10.2727432 16.332989,9.84468798 16.4396249,9.35477624" id="Fill-26" fill="#EE9F20"></path>
                        </g>
                    </g>
                    <g id="Group-39" transform="translate(26.829268, 18.445122)">
                        <g id="Group-35" transform="translate(0.111765, 0.161379)" fill-rule="nonzero">
                            <path d="M10.2613822,19.8993982 L11.9853759,14.8603579 L14.1934458,15.6073585 C14.7830618,15.7873242 15.4136625,15.5043424 15.677864,14.9399856 C16.6307131,12.9057302 18.4201415,8.25590151 18.6094097,6.76743501 C18.8547898,4.83762399 19.038781,1.47594282 15.1747906,0.915513846 C11.3108003,0.355263408 8.63307797,3.56286677 7.44680988,6.5183753 C6.0974827,9.88005646 2.56928499,18.0633193 2.56928499,18.0633193 L10.2613822,19.8993982 Z" id="Fill-1" fill="#FFD5A7" transform="translate(10.644895, 10.375337) scale(-1, 1) translate(-10.644895, -10.375337) "></path>
                            <path d="M0.127821576,10.2791346 C0.127821576,10.2791346 2.85361351,8.80463747 3.71103379,7.68696825 C3.71103379,7.68696825 2.48085264,5.56718938 4.07852471,4.83109817 C5.08930043,4.36547685 5.79354093,6.81786782 5.79354093,6.81786782 C5.79354093,6.81786782 8.67251264,5.7623408 9.52993292,3.65146481 C9.52993292,3.65146481 13.8296822,5.89677448 14.5527188,5.01734669 C15.77763,3.52735848 15.1652622,2.28558293 12.3475976,1.29219811 C12.3475976,1.29219811 7.32779799,-0.952399333 4.6297611,0.671310334 C0.709799321,3.03057704 0.127821576,10.2791346 0.127821576,10.2791346" id="Fill-3" fill="#172B4D" transform="translate(7.640017, 5.180395) scale(-1, 1) translate(-7.640017, -5.180395) "></path>
                            <path d="M5.67503805,4.6993818 L5.74931188,9.76516153 L10.4570899,11.0996834 L9.83767744,14.8309413 C9.63381578,16.0065577 8.94552176,16.6283155 7.60754917,16.3832028 L4.84254496,15.5301966 C3.99057021,15.2673093 3.43221191,14.3714662 3.5167484,13.4032801 L4.26261768,4.86273097 L5.67503805,4.6993818 Z" id="Fill-43" fill="#172B4D" transform="translate(6.982700, 10.567743) scale(-1, 1) translate(-6.982700, -10.567743) "></path>
                        </g>
                        <polygon id="Fill-5" fill="#F09B8B" transform="translate(11.514204, 16.929672) scale(-1, 1) translate(-11.514204, -16.929672) " points="13.4654233 15.6531263 9.56298432 14.2467449 12.1112311 19.6125986"></polygon>
                    </g>
                    <path d="M67.6815288,84.5424537 L73.3646484,118.797288 L103.340455,123.749059 L104.177602,128.716618 C88.7936631,129.697473 78.5226784,129.697473 73.3646484,128.716618 C65.6276033,127.245336 59.0785234,119.334416 51.6264403,91.7660318 L30.6695959,112.009377 L16.3117726,150.940497 L11.0843983,148.2352 C17.6512646,122.8516 21.4811742,108.348063 22.5741271,104.724591 C24.2135564,99.289383 40.9290581,80.9251257 40.9290581,80.9251257 L67.6815288,84.5424537 Z" id="Path" fill="#0F215F" fill-rule="nonzero"></path>
                    <polygon id="Fill-12" fill="#000000" opacity="0.35" transform="translate(49.413222, 90.533161) scale(-1, 1) rotate(7.000000) translate(-49.413222, -90.533161) " points="51.0071178 86.064259 47.3667504 92.0265656 51.4596941 95.002062"></polygon>
                    <path d="M54.0123411,36.7194336 C61.9677954,39.7409028 67.6815288,84.5424537 67.6815288,84.5424537 L38.8242569,83.33131 L19.8376508,43.9968122 C37.3171414,37.1309137 48.7087049,34.7051208 54.0123411,36.7194336 Z" id="Fill-18" fill="#3B82FF" fill-rule="nonzero"></path>
                    <path d="M50.7046572,15.0511187 C50.7046572,15.0511187 44.3452771,13.4417583 45.2337136,11.5615454 C46.4985521,8.88474551 50.7046572,15.0511187 50.7046572,15.0511187" id="Fill-30" fill="#D6D6D6" transform="translate(47.926627, 12.969581) scale(-1, 1) translate(-47.926627, -12.969581) "></path>
                    <path d="M52.7702439,27.254013 C52.7702439,27.254013 46.5363735,28.3169781 46.5972861,26.346778 C46.6843335,23.5422074 52.7702439,27.254013 52.7702439,27.254013" id="Fill-32" fill="#D6D6D6" transform="translate(49.683543, 26.419517) scale(-1, 1) translate(-49.683543, -26.419517) "></path>
                    <path d="M39.5925349,8.00591418 C39.5925349,8.00591418 34.4888008,5.62941392 35.7931296,4.02402888 C37.6498851,1.73877689 39.5925349,8.00591418 39.5925349,8.00591418" id="Fill-34" fill="#D6D6D6" transform="translate(37.586179, 5.764258) scale(-1, 1) translate(-37.586179, -5.764258) "></path>
                    <path d="M60.8907693,3.8428388 C60.8907693,3.8428388 54.403079,2.91801375 55.0748214,0.828687441 C56.0308035,-2.14563235 60.8907693,3.8428388 60.8907693,3.8428388" id="Fill-36" fill="#D6D6D6" transform="translate(57.958404, 1.921419) scale(-1, 1) translate(-57.958404, -1.921419) "></path>
                    <path d="M68.6075209,18.6979507 C68.6075209,18.6979507 63.6546439,20.1747974 63.6687999,18.132681 C63.6888113,15.2256735 68.6075209,18.6979507 68.6075209,18.6979507" id="Fill-39" fill="#D6D6D6" transform="translate(66.138160, 18.093366) scale(-1, 1) translate(-66.138160, -18.093366) "></path>
                    <path d="M69.8422012,28.2964739 C69.8422012,28.2964739 65.5695117,31.391904 64.9862804,29.4772406 C64.1560973,26.7521114 69.8422012,28.2964739 69.8422012,28.2964739" id="Fill-41" fill="#D6D6D6" transform="translate(67.372841, 28.981409) scale(-1, 1) translate(-67.372841, -28.981409) "></path>
                    <g id="Group-36" transform="translate(11.786585, 35.896341)">
                        <path d="M32.8665721,4.32564855 C32.8267408,4.04291148 14.5123294,3.66493667 14.3742478,4.65005213 C14.2813082,5.31076401 17.037631,22.2571309 17.4943628,26.7541383 C17.9510945,31.2481695 18.5644959,36.2630322 18.4689008,36.4892219 C18.3733058,36.7154115 28.1824164,36.1529136 30.8192455,36.1171994 C33.4560747,36.0814853 36.4938718,35.9743428 36.8231435,35.679701 C37.1550706,35.3820831 32.8665721,4.32564855 32.8665721,4.32564855 Z" id="Path" fill="#FFFFFF" fill-rule="nonzero"></path>
                        <path d="M30.2642276,10.2890308 C27.1982217,6.60733401 17.0312306,2.85769404 16.5543145,3.68767478 C16.2346234,4.24494757 12.6263072,20.9127395 11.4235351,25.2078899 C10.220763,29.5030403 8.97082338,34.3406424 8.8031166,34.5036743 C8.63540982,34.6667062 17.6732332,38.6239359 20.0630548,39.7918374 C22.450256,40.9597389 25.2252792,42.2491732 25.6288237,42.1306046 C26.0323681,42.0120359 29.1106575,13.3984043 30.2642276,10.2890308 Z" id="Path" fill="#F3F4F6" transform="translate(19.532520, 22.854675) rotate(-30.000000) translate(-19.532520, -22.854675) "></path>
                        <path d="M31.8604745,4.99638026 C31.8206433,4.71364319 13.5062319,4.33566838 13.3681502,5.32078384 C13.2752106,5.98149572 16.0315335,22.9278626 16.4882652,27.42487 C16.944997,31.9189013 17.5583983,36.9337639 17.4628033,37.1599536 C17.3672083,37.3861432 27.1763188,36.8236453 29.813148,36.7879311 C32.4499771,36.752217 35.4877742,36.6450745 35.8170459,36.3504327 C36.148973,36.0557909 31.8604745,4.99638026 31.8604745,4.99638026 Z" id="Path" fill="url(#linearGradient-9)"></path>
                        <path d="M30.5187839,2.31345343 C30.4789532,2.03071636 12.1647667,1.65274155 12.0266867,2.63785701 C11.9337483,3.29856889 14.6900373,20.2449357 15.1467635,24.7419432 C15.6034896,29.2359744 16.2168834,34.2508371 16.1212895,34.4770268 C16.0256957,34.7032164 25.8346858,34.1407185 28.4714825,34.1050043 C31.1082793,34.0692902 34.1460391,33.9621477 34.4753067,33.6675059 C34.8098852,33.3728641 30.5187839,2.31642961 30.5187839,2.31345343 Z" id="Path" fill="#F3F4F6" fill-rule="nonzero"></path>
                        <path d="M29.1773205,5.66711196 C29.1374897,5.3843749 10.8233033,5.00640009 10.6852233,5.99151555 C10.5922849,6.65222742 13.3485739,23.5985943 13.8053,28.0956017 C14.2620262,32.589633 14.87542,37.6044956 14.7798261,37.8306853 C14.6842323,38.056875 24.4932224,37.494377 27.1300191,37.4586628 C29.7668159,37.4229487 32.8045756,37.3158062 33.1338433,37.0211644 C33.4684217,36.7265227 29.1773205,5.66711196 29.1773205,5.66711196 Z" id="Path" fill="#FFFFFF" fill-rule="nonzero"></path>
                        <path d="M15.7134146,5.18240102 C15.7134146,5.18240102 18.1531372,2.19265114 18.6472258,2.3406873 C19.1413145,2.49162613 21.4146341,5.35365854 21.4146341,5.35365854 L15.7134146,5.18240102 Z" id="Path" fill="#FFFFFF" fill-rule="nonzero"></path>
                        <path d="M28.506816,7.00857538 C28.4669847,6.72583831 10.1525733,6.3478635 10.0144917,7.33297896 C9.92155206,7.99369084 12.677875,24.9400577 13.1346067,29.4370651 C13.5913384,33.9310964 14.2047398,38.9459591 14.1091447,39.1721487 C14.0135497,39.3983384 23.8226603,38.8358404 26.4594894,38.8001263 C29.0963186,38.7644121 32.1341157,38.6572696 32.4633874,38.3626279 C32.7953145,38.0679861 28.506816,7.00857538 28.506816,7.00857538 Z" id="Path" fill="#F3F4F6" fill-rule="nonzero"></path>
                        <path d="M13.3658537,38.8902439 C13.3658537,38.8902439 15.8927029,42.5379475 16.0950532,42.578933 C16.2974035,42.6199184 19.0670732,38.8902439 19.0670732,38.8902439 L13.3658537,38.8902439 Z" id="Path" fill="#FFFFFF" fill-rule="nonzero"></path>
                        <path d="M26.4946209,8.01467294 C26.4547896,7.73193588 8.14037822,7.35396106 8.00229653,8.33907652 C7.90935693,8.9997884 10.6656798,25.9461553 11.1224116,30.4431627 C11.5791433,34.9371939 12.1925446,39.9520566 12.0969496,40.1782463 C12.0013546,40.4044359 21.8104652,39.841938 24.4472943,39.8062238 C27.0841234,39.7705097 30.1219205,39.6633672 30.4511923,39.3687254 C30.7831194,39.0740836 26.4946209,8.01764912 26.4946209,8.01467294 Z" id="Path" fill-opacity="0.6" fill="url(#linearGradient-10)"></path>
                    </g>
                    <g id="Group-83" transform="translate(22.647375, 55.166032) rotate(-87.000000) translate(-22.647375, -55.166032) translate(7.147375, 49.166032)" fill-rule="nonzero">
                        <path d="M28.5594671,8.3813234 C28.1762785,7.51880797 24.6423161,0.617518107 21.81464,1.6340068 C18.9885031,2.65189843 22.1241232,6.10932813 22.1241232,6.10932813 C22.1241232,6.10932813 20.1303187,4.53552623 20.5806073,6.11390119 C20.8807996,7.16615116 21.8131562,8.62930078 23.377677,10.5033501 L28.5594671,8.3813234 Z" id="Fill-15" fill="#FFD5A7" transform="translate(24.536930, 6.017719) scale(-1, 1) rotate(-60.000000) translate(-24.536930, -6.017719) "></path>
                        <g id="Group-37" transform="translate(0.235641, 2.352840)" fill="#3B82FF">
                            <path d="M0.0101509809,0.763128779 L1.13912931,7.01027502 C4.51258355,7.1008769 8.60514701,7.27258209 12.2008293,7.34674412 C17.1210288,7.44830591 21.0192789,6.83893516 22.0033732,2.4726914 C22.9888293,-1.90031097 6.88805417,0.945611208 0.0101509809,0.763128779 Z" id="Fill-56" transform="translate(11.028402, 3.688439) scale(-1, 1) translate(-11.028402, -3.688439) "></path>
                        </g>
                    </g>
                    <g id="Group-23" transform="translate(70.696466, 86.772342)" fill="url(#linearGradient-11)">
                        <path d="M1.74255794,2.65855187 C1.74255794,2.65855187 4.22992829,3.37848822 6.67145375,3.55124206 C9.11077693,3.72176409 9.92906648,3.67590194 9.92906648,3.67590194 C9.98049089,3.67288997 11.0458145,6.99655674 11.2218204,7.34489152 C11.7912635,8.46173609 12.627812,9.33246383 13.5726751,10.126909 C13.5726751,10.126909 11.4538556,10.9840357 9.61792842,11.1126178 C7.78420357,11.2434316 6.39362295,11.1595252 6.3913885,11.1595577 C6.13024773,11.1429823 5.40182251,9.5802101 5.24681051,9.32665122 C4.44567674,8.00716779 3.61999623,6.68577762 2.91798199,5.30825617 C2.76587971,5.0071143 2.03644364,2.72898314 1.74255794,2.65855187 Z" id="Path-Copy-3" transform="translate(7.657617, 6.922288) rotate(-25.000000) translate(-7.657617, -6.922288) "></path>
                    </g>
                    <polygon id="Fill-12-Copy" fill="#000000" opacity="0.25" transform="translate(50.056159, 61.866972) scale(-1, 1) translate(-50.056159, -61.866972) " points="51.484269 68.9727501 52.4903665 51.2949201 47.6219512 72.4390244"></polygon>
                    <path d="M200.217527,150.650296 C201.765622,153.127638 198.318722,155.642119 196.76497,155.705084 C190.721183,155.951331 158.418971,155.951331 99.8583349,155.705084 C102.051565,153.196232 103.637851,151.573555 104.617194,150.837052 C105.936842,149.844402 107.335814,148.619994 108.787218,147.942661 C109.525812,147.598437 110.616796,147.67129 110.678647,148.844211 C110.72393,149.703131 110.174588,150.521473 109.608641,151.119218 C112.556772,149.98783 115.571825,149.111665 118.618755,148.570667 C119.974752,148.32944 122.249072,148.379304 122.564716,150.329873 C125.988798,147.04752 130.380835,145.329396 134.476448,143.768618 C142.48579,140.715622 150.831104,139.057245 159.152249,138.86725 C163.229433,138.774785 167.48369,138.845596 171.296358,140.56078 C172.562431,141.130204 174.266941,141.88835 174.423586,143.750719 C174.546728,145.209969 173.720363,146.552898 172.804444,147.596074 C175.531165,146.213122 178.954555,145.783181 181.8232,145.972733 C182.825517,146.038964 184.010117,146.790013 184.178494,148.245587 C184.222914,148.634679 184.155607,149.05047 184.001135,149.39404 C186.961568,148.463238 190.018355,148.091547 193.04206,148.323362 C194.519269,148.436808 195.985266,148.68902 197.419513,149.082896 C198.392319,149.349702 199.589925,149.646542 200.217527,150.650296 Z" id="Fill-4" fill="#F3F4F6" fill-rule="nonzero"></path>
                    <g id="Group-3" transform="translate(0.000000, 146.554878)">
                        <mask id="mask-13" fill="white">
                            <use xlink:href="#path-12"></use>
                        </mask>
                        <g id="Clip-2"></g>
                        <path d="M13.0495836,0.175667732 C12.6348381,0.0710798213 12.3304205,-0.155808468 11.9356778,0.165968046 C11.7631537,0.306824345 11.6575139,0.630709486 11.5371846,0.83862013 C11.28965,1.26709318 11.0030474,1.65212851 10.6892535,1.9916175 C10.0685417,2.6630044 9.35375428,3.15094074 8.61271316,3.53175882 C6.3223929,4.70795108 2.92910591,5.13094171 1.11572734,6.24345343 C0.528770264,6.60402868 -0.31884826,7.63641257 0.122775993,8.62999772 C0.551585954,9.59406208 7.71381579,9.53952266 10.5304597,9.02965659 C11.4537138,8.86265332 13.4558191,8.04610353 14.0740305,6.91419243 C14.4284551,6.26473525 15.8645375,0.867719186 15.7563973,0.83862013 C14.5161004,0.538632764 13.6138291,0.317648631 13.0495836,0.175667732 Z" id="Fill-1" fill="#0F215F" mask="url(#mask-13)"></path>
                    </g>
                    <g id="Group-3" transform="translate(107.108905, 130.968244) rotate(-102.000000) translate(-107.108905, -130.968244) translate(97.608905, 125.468244)" fill="#0F215F">
                        <path d="M14.4801387,0.175500414 C13.9239987,0.0710121204 13.5157995,-0.155660066 12.9864816,0.165809968 C12.7551408,0.306532106 12.6134864,0.630108758 12.4521346,0.837821375 C12.1202108,1.26588632 11.7359,1.65055492 11.3151279,1.98972055 C10.4828038,2.66046799 9.5243319,3.14793958 8.53065596,3.52839494 C5.45952256,4.70346693 0.424929438,6.16640775 0.3110097,8.78253311 C0.197089962,11.3986585 7.32530762,9.5304366 11.1021982,9.02105617 C12.3402069,8.85421196 15.0248676,8.0384399 15.8538389,6.90760691 C16.3290934,6.25876831 18.2547632,0.866892715 18.1097561,0.837821375 C16.4466187,0.538119736 15.2367462,0.317346082 14.4801387,0.175500414 Z" id="Fill-1"></path>
                    </g>
                    <path d="M71.3398743,148.718596 C68.9534109,148.60323 66.5709719,148.885273 64.2472219,149.525486 C64.9635634,148.994938 65.6410024,148.394633 66.265789,147.71384 C66.7705146,147.164176 67.4549963,146.253657 66.8738073,145.446096 C66.3140817,144.668383 65.0373438,144.45006 64.2512463,144.254877 C63.0995999,143.96881 61.9217951,143.862834 60.7470085,143.87256 C58.1861548,143.894023 55.6487768,144.457773 53.1462768,145.056736 C50.5522219,145.677163 47.9759414,146.40323 45.4234719,147.234267 C43.0017951,148.022712 40.3316121,148.716919 38.3267951,150.628505 C38.4250573,149.365517 37.6272219,148.299389 36.6445999,147.876493 C35.2417646,147.273169 33.5119475,147.505578 32.0608195,147.680304 C28.9187768,148.058261 25.8850573,149.205547 23.1042036,150.979968 C23.9218256,149.492956 25.6667341,148.391615 25.3337158,146.358627 C25.0184719,144.434297 22.9720695,145.100669 21.8750878,145.403169 C19.4331772,146.07636 14.9361967,149.62319 8.38414634,156.043657 C44.7249569,155.992682 64.1698642,155.992234 66.7188682,156.042316 C74.3122219,155.982397 78.4665105,155.390588 79.1817341,154.266889 C80.2173438,152.6407 78.9593865,150.715029 77.6779536,150.039602 C75.7653621,149.031828 73.4023743,148.8182 71.3398743,148.718596 Z" id="Fill-9" fill="#F3F4F6" fill-rule="nonzero"></path>
                    <g id="Group-38" transform="translate(27.164634, 35.884146)" fill-rule="nonzero">
                        <path d="M10.603518,12.8369305 C10.1510408,11.8070594 5.97066478,3.56975954 2.57983391,4.80493723 C-0.809165062,6.04178408 2.91873381,10.1595994 2.91873381,10.1595994 C2.91873381,10.1595994 0.246586699,7.80058506 0.20753463,8.92275257 C0.181499918,9.67086425 1.5749586,11.833538 4.38791066,15.4107737 L10.603518,12.8369305 Z" id="Fill-15" fill="#FFD5A7"></path>
                        <path d="M10.0038767,9.21603828 C5.97494024,8.60356824 2.29527333,13.6011071 8.25711275,18.0769441 C12.2316724,21.0608354 20.555491,24.6460007 33.2285688,28.83244 C33.2285688,28.83244 16.8790333,28.9420135 5.84075723,28.5374337 L7.78113984,35.8910375 C13.1951845,36.0907621 19.7646021,36.4054856 25.5348366,36.5921024 C33.4306152,36.847557 39.6721445,36.2413912 41.1607263,31.1509855 C42.651353,26.0526957 40.2126504,23.6068399 37.5371725,21.3697194 C34.8616946,19.132599 14.0328132,9.82850831 10.0038767,9.21603828 Z" id="Fill-47" fill="#3B82FF" transform="translate(23.370766, 22.902718) rotate(-300.000000) translate(-23.370766, -22.902718) "></path>
                    </g>
                </g>
            </g>
        </g>
    </g>
</svg>