<?xml version="1.0" encoding="utf-8"?>
<svg viewBox="0 0 337.632 471.923" version="1.1" width="100%" height="100%" xmlns="http://www.w3.org/2000/svg">
  <path style="fill: rgb(255, 255, 255); strokeWidth: 1.33333;" d="M 4.686 92.371 L 4.738 96.554 C 4.767 98.855 11.434 175.041 19.553 265.855 L 34.315 430.971 L 100.664 449.548 C 137.156 459.765 167.766 468.176 168.687 468.241 C 169.607 468.305 200.621 459.979 237.608 449.738 C 296.908 433.318 304.913 430.845 305.338 428.813 C 305.929 425.981 334.969 98.386 334.939 94.881 L 334.918 92.371 L 169.801 92.371 Z" id="path118"/>
  <path id="path88" d="M 101.189 450.659 L 34.25 431.949 L 33.376 426.997 C 32.598 422.596 3.57 98.382 3.57 94.098 C 3.57 92.548 20.519 92.372 169.802 92.372 C 327.379 92.372 336.033 92.473 336.021 94.324 C 335.968 102.318 305.922 430.825 305.184 431.479 C 304.251 432.305 174.689 468.401 170.36 469.04 C 169.132 469.222 138.006 460.95 101.189 450.659 Z M 212.011 384.546 C 234.509 378.341 253.242 372.944 253.639 372.553 C 254.036 372.162 256.669 345.485 259.49 313.27 C 262.311 281.056 264.904 252.565 265.252 249.957 L 265.884 245.216 L 217.285 245.216 L 168.686 245.216 L 168.686 265.855 L 168.686 286.495 L 194.925 286.495 L 221.164 286.495 L 220.642 289.005 C 220.355 290.386 219.239 302.25 218.162 315.37 C 217.022 329.273 215.669 339.761 214.92 340.51 C 214.214 341.216 203.522 344.49 191.161 347.785 L 168.686 353.775 L 168.686 374.802 C 168.686 389.153 169.07 395.829 169.895 395.829 C 170.559 395.829 189.512 390.751 212.011 384.546 Z M 265.245 219.277 C 264.507 213.81 257.938 140.487 257.938 137.723 C 257.938 136.043 254.076 135.882 213.87 135.882 L 169.802 135.882 L 169.802 157.465 L 169.802 179.047 L 189.605 179.811 C 200.496 180.23 211.958 180.869 215.076 181.23 L 220.745 181.887 L 222.122 198.769 C 222.879 208.054 223.78 217.534 224.126 219.835 L 224.754 224.018 L 245.319 224.018 L 265.884 224.018 Z" style="fill: rgb(234, 235, 236); strokeWidth: 1.33333;"/>
  <path id="path80" d="M 100.664 449.548 L 34.315 430.971 L 19.553 265.855 C 11.433 175.041 4.767 98.856 4.738 96.555 L 4.686 92.372 L 169.802 92.372 L 334.918 92.372 L 334.939 94.882 C 334.969 98.387 305.929 425.982 305.338 428.814 C 304.913 430.846 296.908 433.319 237.608 449.739 C 200.621 459.98 169.607 468.306 168.686 468.242 C 167.766 468.177 137.156 459.765 100.664 449.548 Z M 212.061 385.335 C 234.997 378.959 254.088 373.215 254.485 372.571 C 254.883 371.927 257.623 343.888 260.574 310.261 C 263.525 276.634 266.181 248.242 266.477 247.168 C 266.984 245.324 263.082 245.216 195.761 245.216 L 124.508 245.216 L 127.542 213.141 C 129.21 195.5 130.616 181.02 130.665 180.964 C 130.714 180.909 141.171 180.575 153.904 180.223 C 174.781 179.646 217.835 181.312 219.275 182.752 C 219.813 183.29 223.353 218.021 223.353 222.762 C 223.353 225.099 223.668 225.134 244.971 225.134 L 266.589 225.134 L 266.08 220.393 C 265.8 217.785 263.968 197.578 262.01 175.488 L 258.45 135.324 L 175.078 135.038 C 108.751 134.811 91.704 135.039 91.697 136.154 C 91.691 136.925 91.206 141.823 90.617 147.039 C 89.191 159.66 78.319 281.605 78.319 284.973 L 78.319 287.61 L 149.26 287.61 L 220.202 287.61 L 219.57 291.794 C 219.222 294.095 218.119 305.768 217.119 317.733 C 216.119 329.698 214.979 339.797 214.585 340.175 C 213.546 341.173 171.812 352.322 169.21 352.297 C 168.001 352.286 157.223 349.596 145.258 346.321 L 123.502 340.366 L 122.705 331.002 C 122.266 325.852 121.598 318.5 121.221 314.665 L 120.536 307.692 L 99.427 307.692 L 78.319 307.692 L 78.365 311.876 C 78.453 319.7 83.526 372.401 84.263 373.138 C 85.115 373.99 166.19 396.78 168.686 396.869 C 169.607 396.902 189.125 391.712 212.061 385.335 Z" style="fill: rgb(240, 190, 37); strokeWidth: 1.33333;"/>
  <path id="path78" d="M 100.664 449.548 L 34.315 430.971 L 19.553 265.855 C 11.433 175.041 4.767 98.856 4.738 96.555 L 4.686 92.372 L 169.802 92.372 L 334.918 92.372 L 334.939 94.882 C 334.969 98.387 305.929 425.982 305.338 428.814 C 304.913 430.846 296.908 433.319 237.608 449.739 C 200.621 459.98 169.607 468.306 168.686 468.242 C 167.766 468.177 137.156 459.765 100.664 449.548 Z M 224.396 424.696 C 253.582 416.643 278.01 409.489 278.68 408.798 C 279.723 407.724 304.931 131.458 304.829 122.215 L 304.795 119.147 L 237.299 119.147 L 169.802 119.147 L 169.802 126.957 L 169.802 134.766 L 130.754 134.766 C 100.265 134.766 91.704 135.072 91.697 136.161 C 91.691 136.928 91.206 141.823 90.617 147.039 C 89.191 159.66 78.319 281.605 78.319 284.973 L 78.319 287.61 L 124.06 287.61 L 169.802 287.61 L 169.802 319.964 C 169.802 345.115 169.491 352.314 168.407 352.297 C 167.64 352.286 157.223 349.596 145.258 346.321 L 123.502 340.366 L 122.705 331.002 C 122.266 325.852 121.598 318.5 121.221 314.665 L 120.536 307.692 L 99.427 307.692 L 78.319 307.692 L 78.365 311.876 C 78.499 323.842 83.676 372.689 84.89 373.44 C 85.628 373.896 105.035 379.472 128.017 385.832 L 169.802 397.394 L 169.802 418.367 C 169.802 429.901 170.146 439.339 170.566 439.339 C 170.986 439.339 195.209 432.75 224.396 424.696 Z M 127.424 213.441 C 129.028 195.964 130.559 181.468 130.826 181.226 C 131.093 180.984 139.972 180.547 150.557 180.254 L 169.802 179.722 L 169.802 212.469 L 169.802 245.216 L 147.155 245.216 L 124.508 245.216 Z" style="fill: rgb(228, 161, 38); strokeWidth: 1.33333;"/>
</svg>